<?xml version="1.0" encoding="utf-8"?>
<!-- Generator: Adobe Illustrator 25.0.0, SVG Export Plug-In . SVG Version: 6.00 Build 0)  -->
<svg version="1.1" id="Livello_1" xmlns="http://www.w3.org/2000/svg" xmlns:xlink="http://www.w3.org/1999/xlink" x="0px" y="0px"
	 viewBox="0 0 512 512" style="enable-background:new 0 0 512 512;" xml:space="preserve">
<style type="text/css">
	.st0{clip-path:url(#SVGID_2_);fill:#FFFFFF;}
	.st1{fill:#FFFFFF;}
	.st2{clip-path:url(#SVGID_4_);fill:#FFFFFF;}
	.st3{clip-path:url(#SVGID_6_);fill:#FFFFFF;}
	.st4{clip-path:url(#SVGID_8_);fill:#FFFFFF;}
	.st5{clip-path:url(#SVGID_10_);fill:#FFFFFF;}
	.st6{clip-path:url(#SVGID_12_);fill:#FFFFFF;}
	.st7{clip-path:url(#SVGID_14_);fill:#FFFFFF;}
	.st8{clip-path:url(#SVGID_16_);fill:#FFFFFF;}
	.st9{fill:#0F283D;}
	.st10{clip-path:url(#SVGID_18_);fill:#0F283D;}
	.st11{clip-path:url(#SVGID_20_);fill:#0F283D;}
	.st12{clip-path:url(#SVGID_22_);fill:#0F283D;}
	.st13{clip-path:url(#SVGID_24_);fill:#0F283D;}
</style>
<g>
	<g>
		<defs>
			<rect id="SVGID_1_" x="-2556.1" y="-952" width="4993.8" height="3531"/>
		</defs>
		<clipPath id="SVGID_2_">
			<use xlink:href="#SVGID_1_"  style="overflow:visible;"/>
		</clipPath>
		<path class="st0" d="M275.2,287.1v-73.4l28.8,73.4H275.2z M267.7,287.1h-67.6l16.5-66.3c18.1-6.9,30.9-24.5,30.9-44.9v-2.9
			c18.1,2.4,20.1,22.4,20.1,31.3V287.1z M199.4,216.4c-15.4,0-29.2-8.5-36.1-22.1v-21.6H240v3.2C240,198.2,221.8,216.4,199.4,216.4
			 M155.7,203.3h-28.1v-30.6h28.1V203.3z M312.7,293c0.7-1,0.9-2.3,0.4-3.5l-40.5-103.4c-4.5-13.4-14.6-21-28.8-21h-84.3h-35.7
			c-2.1,0-3.8,1.7-3.8,3.8v38.2c0,2.1,1.7,3.8,3.8,3.8h35.7c1.9,0,3.5-1.5,3.7-3.4c9,10.2,22.2,16.4,36.2,16.4c3,0,6-0.3,8.8-0.8
			l-16.7,66.8c-0.3,1.1,0,2.3,0.7,3.2c0.7,0.9,1.8,1.5,3,1.5h114.3C310.8,294.6,312,294,312.7,293"/>
		<path class="st0" d="M311.1,97.6c2.9,0,5.6,1.2,7.6,3.3c0.7,0.8,1.7,1.2,2.7,1.2c1,0,2-0.4,2.8-1.1l6.1-6.1
			c0.7-0.7,1.1-1.7,1.1-2.8c0-1-0.5-2-1.2-2.7c-2.1-1.9-3.3-4.7-3.3-7.6c0-5.7,4.6-10.3,10.3-10.3c5.7,0,10.3,4.6,10.3,10.3
			c0,2.9-1.2,5.6-3.3,7.6c-0.8,0.7-1.2,1.7-1.2,2.7c0,1,0.4,2,1.1,2.8l6.1,6.1c0.7,0.7,1.7,1.1,2.8,1.1c1,0,2-0.5,2.7-1.2
			c0.1-0.1,0.2-0.2,0.3-0.3c1.9-1.9,4.5-3,7.3-3c2.7,0,5.3,1.1,7.3,3c1.9,1.9,3,4.5,3,7.3c0,2.7-1.1,5.3-3,7.3c-1.9,1.9-4.5,3-7.3,3
			c-2.7,0-5.3-1.1-7.3-3c-0.1-0.1-0.2-0.2-0.3-0.3c-0.7-0.8-1.7-1.2-2.7-1.2c-1,0-2,0.4-2.8,1.1l-6.1,6.1c-0.7,0.7-1.1,1.7-1.1,2.8
			c0,1,0.5,2,1.2,2.7c0.1,0.1,0.2,0.2,0.3,0.3c4,4,4,10.5,0,14.6c-1.9,1.9-4.5,3-7.3,3c-2.7,0-5.3-1.1-7.3-3c-4-4-4-10.5,0-14.6
			c0.1-0.1,0.2-0.2,0.3-0.3c0.8-0.7,1.2-1.7,1.2-2.7c0-1-0.4-2-1.1-2.8l-6.1-6.1c-0.7-0.7-1.7-1.1-2.7-1.1c0,0-0.1,0-0.1,0
			c-1,0-2,0.5-2.7,1.2c-1.9,2.1-4.7,3.3-7.6,3.3c-5.7,0-10.3-4.6-10.3-10.3C300.8,102.2,305.4,97.6,311.1,97.6 M311.1,125.8
			c3.7,0,7.2-1.1,10.2-3.2l1.2,1.2c-4.8,7-4.1,16.6,2,22.8c3.5,3.5,8,5.2,12.6,5.2c4.6,0,9.1-1.7,12.6-5.2c3.4-3.4,5.2-7.9,5.2-12.6
			c0-3.7-1.1-7.2-3.2-10.2l1.2-1.2c3,2.1,6.5,3.2,10.2,3.2c4.8,0,9.3-1.9,12.6-5.2c7-7,7-18.3,0-25.2c-3.4-3.4-7.9-5.2-12.6-5.2
			c-3.7,0-7.2,1.1-10.2,3.2l-1.2-1.2c2.1-3,3.2-6.5,3.2-10.2c0-9.8-8-17.8-17.8-17.8c-9.8,0-17.9,8-17.9,17.8
			c0,3.7,1.1,7.2,3.2,10.2l-1.2,1.2c-3-2.1-6.5-3.2-10.2-3.2c-9.8,0-17.8,8-17.8,17.8C293.3,117.8,301.3,125.8,311.1,125.8"/>
		<path class="st0" d="M337.1,50.7c31.5,0,57.2,25.7,57.2,57.2c0,31.5-25.7,57.2-57.2,57.2c-31.5,0-57.2-25.7-57.2-57.2
			C279.9,76.4,305.6,50.7,337.1,50.7 M337.1,172.7c35.7,0,64.8-29.1,64.8-64.8c0-35.7-29-64.8-64.8-64.8c-35.7,0-64.8,29-64.8,64.8
			C272.4,143.6,301.4,172.7,337.1,172.7"/>
	</g>
	<polygon class="st1" points="49.2,389.9 49.2,395 77.4,395 77.4,389.9 69.3,389.9 69.3,340.8 81.6,340.8 81.6,350.8 90.4,350.8 
		90.4,335.3 36.2,335.3 36.2,350.8 45.1,350.8 45.1,340.8 57.4,340.8 57.4,389.9 	"/>
	<g>
		<defs>
			<rect id="SVGID_3_" x="-2556.1" y="-952" width="4993.8" height="3531"/>
		</defs>
		<clipPath id="SVGID_4_">
			<use xlink:href="#SVGID_3_"  style="overflow:visible;"/>
		</clipPath>
		<path class="st2" d="M166,360.7c-1.6,1.5-3.9,2.2-6.9,2.2h-10v-22.1h10c3,0,5.3,0.7,6.9,2.2c1.6,1.5,2.4,3.6,2.4,6.4v4.8
			C168.4,357.1,167.6,359.2,166,360.7 M187.2,395v-5.1h-0.5c-1.9,0-3.5-0.4-4.8-1.2c-1.3-0.8-2.5-2.2-3.6-4.2L167.5,366
			c3.9-0.8,7-2.5,9.5-5.2c2.4-2.7,3.7-6.1,3.7-10.2c0-2.6-0.4-4.9-1.3-6.8c-0.9-1.9-2.1-3.5-3.6-4.8c-1.6-1.3-3.4-2.2-5.6-2.8
			c-2.2-0.6-4.6-0.9-7.2-0.9H131v5.1h6.1v49.5H131v5.1h24.1v-5.1h-6.1v-21.7h7.5l9.6,18.7c0.7,1.4,1.5,2.6,2.3,3.6
			c0.8,1,1.7,1.9,2.8,2.6c1.1,0.7,2.3,1.2,3.7,1.5c1.4,0.3,3,0.5,4.9,0.5H187.2z"/>
	</g>
	<path class="st1" d="M241.7,371l8.6-26.5h0.4l8.6,26.5H241.7z M258.1,395h23.7v-5.1h-4.4l-18.8-54.6h-10.7l-18.8,54.6h-4.4v5.1
		h18.1v-5.1h-7.1l4.4-13.4h20.6l4.4,13.4h-7.1V395z"/>
	<g>
		<defs>
			<rect id="SVGID_5_" x="-2556.1" y="-952" width="4993.8" height="3531"/>
		</defs>
		<clipPath id="SVGID_6_">
			<use xlink:href="#SVGID_5_"  style="overflow:visible;"/>
		</clipPath>
		<path class="st3" d="M88.1,447.5l-2-0.5c-1.8-0.5-3.1-1.1-3.9-1.9c-0.8-0.8-1.2-1.9-1.2-3.3c0-1.4,0.5-2.5,1.4-3.3
			c0.9-0.8,2.3-1.3,4.1-1.3c1.1,0,2,0.1,2.8,0.3c0.8,0.2,1.4,0.5,1.8,0.8c0.5,0.4,0.8,0.8,1,1.3c0.2,0.5,0.3,1.1,0.3,1.8v1.8h2.8
			v-7.6h-2.8v2.1h-0.2c-0.4-0.8-1.1-1.4-2-1.9c-1-0.5-2.2-0.7-3.7-0.7c-1.3,0-2.4,0.2-3.5,0.5c-1.1,0.3-2,0.8-2.7,1.5
			c-0.8,0.6-1.3,1.4-1.8,2.3c-0.4,0.9-0.6,1.9-0.6,3c0,2.2,0.7,3.9,2,5.2c1.3,1.3,3.2,2.2,5.6,2.8l2.2,0.5c1.6,0.4,2.9,1.1,3.6,1.8
			c0.8,0.8,1.2,1.9,1.2,3.3c0,1.6-0.5,2.9-1.5,3.9c-1,1-2.6,1.4-4.9,1.4c-1.1,0-2-0.1-2.7-0.3c-0.7-0.2-1.3-0.6-1.8-1
			c-0.5-0.4-0.8-0.9-1-1.5c-0.2-0.6-0.3-1.2-0.3-1.8v-1.8h-2.8v8h2.8v-2.3h0.2c0.4,0.9,1.1,1.5,2.2,2.1c1,0.5,2.4,0.8,4,0.8
			c1.4,0,2.7-0.2,3.8-0.6c1.1-0.4,2-1,2.8-1.7c0.8-0.7,1.3-1.6,1.7-2.6c0.4-1,0.6-2.1,0.6-3.3c0-2-0.6-3.7-1.9-4.9
			C92.3,449.1,90.5,448.1,88.1,447.5"/>
		<path class="st3" d="M111.9,457.4c0,1.3-0.4,2.3-1.3,3c-0.9,0.6-2,1-3.2,1c-1.2,0-2.2-0.3-2.9-0.8c-0.7-0.5-1-1.3-1-2.3v-0.8
			c0-0.6,0.1-1.2,0.3-1.6c0.2-0.5,0.5-0.9,1-1.2c0.4-0.3,1-0.6,1.8-0.7c0.8-0.2,1.7-0.3,2.8-0.3h2.5V457.4z M115.2,448.6
			c0-2-0.6-3.5-1.8-4.6c-1.2-1.1-2.8-1.6-5-1.6c-1.2,0-2.2,0.1-3.2,0.4c-0.9,0.2-1.7,0.6-2.3,1c-0.6,0.4-1.1,0.9-1.4,1.4
			c-0.3,0.5-0.5,1.1-0.5,1.7c0,0.8,0.2,1.3,0.6,1.7c0.4,0.4,0.9,0.6,1.5,0.6c0.7,0,1.2-0.2,1.6-0.6c0.4-0.4,0.6-0.9,0.6-1.6
			c0-0.6-0.1-1-0.4-1.3c-0.3-0.3-0.6-0.5-0.8-0.7v-0.1c0.4-0.2,0.8-0.4,1.4-0.5c0.6-0.1,1.2-0.2,1.9-0.2c1.5,0,2.7,0.4,3.5,1.3
			c0.8,0.8,1.2,2.1,1.2,3.7v3h-2.9c-1.6,0-3,0.1-4.2,0.4c-1.2,0.3-2.1,0.6-2.8,1.1c-0.7,0.5-1.2,1.1-1.5,1.9
			c-0.3,0.7-0.5,1.6-0.5,2.6c0,1.7,0.5,3,1.6,4c1.1,1,2.5,1.5,4.4,1.5c0.9,0,1.7-0.1,2.3-0.3c0.7-0.2,1.2-0.5,1.7-0.8
			c0.5-0.3,0.9-0.7,1.2-1.1c0.3-0.4,0.5-0.8,0.7-1.3h0.2v0.3c0,1,0.3,1.7,0.8,2.3c0.6,0.6,1.3,0.9,2.3,0.9c0.6,0,1.1-0.1,1.6-0.2
			c0.5-0.2,0.9-0.3,1.2-0.5v-1.4h-2.9V448.6z"/>
		<path class="st3" d="M132.6,442.3c-0.7,0-1.3,0.1-1.9,0.3c-0.5,0.2-1,0.5-1.4,0.8c-0.4,0.3-0.7,0.7-1,1.1
			c-0.3,0.4-0.5,0.8-0.7,1.3h-0.2v-3.5l-6,1.2v1.3l2.9,0.5v15.9h-2.9v1.8h9.8v-1.8h-3.7v-12.6c0-0.6,0.1-1.1,0.4-1.6
			c0.3-0.5,0.6-1,1.1-1.5c0.4-0.4,0.9-0.8,1.5-1.1c0.5-0.3,1.1-0.4,1.6-0.4c0.2,0,0.4,0,0.6,0c0.2,0,0.3,0,0.4,0.1v0.1
			c-0.3,0.1-0.5,0.2-0.8,0.6c-0.2,0.3-0.3,0.8-0.3,1.3c0,0.6,0.2,1.1,0.6,1.5c0.4,0.4,1,0.6,1.7,0.6c0.6,0,1.1-0.2,1.5-0.7
			c0.4-0.4,0.6-1.1,0.6-1.8c0-1-0.4-1.8-1-2.4C134.7,442.6,133.8,442.3,132.6,442.3"/>
		<path class="st3" d="M144.7,437.5h-1.8L142,441c-0.1,0.3-0.2,0.5-0.3,0.8c-0.1,0.2-0.2,0.4-0.4,0.5c-0.2,0.1-0.5,0.3-0.8,0.3
			s-0.8,0.1-1.3,0.1h-0.4v1.9h2.6v14.8c0,1.4,0.3,2.3,0.8,2.9c0.5,0.6,1.5,0.8,2.9,0.8c0.4,0,0.9,0,1.4-0.1c0.5,0,0.9-0.1,1.4-0.2
			c0.4-0.1,0.8-0.2,1.2-0.3c0.3-0.1,0.6-0.2,0.9-0.3v-1.3h-5.2v-16.4h5.2v-1.9h-5.2V437.5z"/>
		<path class="st3" d="M167.7,455c0,0.9-0.1,1.8-0.3,2.6c-0.2,0.8-0.6,1.5-1,2.1c-0.5,0.6-1,1-1.8,1.4c-0.7,0.3-1.6,0.5-2.5,0.5
			c-1,0-1.8-0.2-2.5-0.5c-0.7-0.3-1.3-0.8-1.7-1.4c-0.5-0.6-0.8-1.3-1-2.1c-0.2-0.8-0.3-1.7-0.3-2.6v-4.3c0-0.9,0.1-1.8,0.3-2.6
			c0.2-0.8,0.6-1.5,1-2.1c0.5-0.6,1-1,1.7-1.4c0.7-0.3,1.6-0.5,2.5-0.5c1,0,1.8,0.2,2.5,0.5c0.7,0.3,1.3,0.8,1.8,1.4
			c0.5,0.6,0.8,1.3,1,2.1c0.2,0.8,0.3,1.7,0.3,2.6V455z M168.8,445.2c-0.8-0.9-1.8-1.6-2.9-2.1c-1.2-0.5-2.4-0.7-3.8-0.7
			s-2.7,0.2-3.8,0.7c-1.1,0.5-2.1,1.2-2.9,2.1c-0.8,0.9-1.4,2-1.9,3.4c-0.4,1.3-0.7,2.8-0.7,4.3c0,1.6,0.2,3.1,0.7,4.4
			c0.4,1.3,1.1,2.4,1.9,3.3c0.8,0.9,1.8,1.6,2.9,2.1c1.2,0.5,2.4,0.7,3.8,0.7s2.7-0.2,3.8-0.7c1.1-0.5,2.1-1.2,2.9-2.1
			c0.8-0.9,1.4-2,1.9-3.3c0.4-1.3,0.7-2.7,0.7-4.4c0-1.6-0.2-3-0.7-4.3C170.3,447.2,169.6,446.1,168.8,445.2"/>
		<path class="st3" d="M186.3,442.3c-0.7,0-1.3,0.1-1.9,0.3s-1,0.5-1.4,0.8c-0.4,0.3-0.7,0.7-1,1.1c-0.3,0.4-0.5,0.8-0.7,1.3h-0.2
			v-3.5l-6,1.2v1.3l2.9,0.5v15.9h-2.9v1.8h9.8v-1.8h-3.7v-12.6c0-0.6,0.1-1.1,0.4-1.6c0.3-0.5,0.6-1,1.1-1.5
			c0.4-0.4,0.9-0.8,1.5-1.1c0.5-0.3,1.1-0.4,1.6-0.4c0.2,0,0.4,0,0.6,0c0.2,0,0.3,0,0.4,0.1v0.1c-0.3,0.1-0.5,0.2-0.8,0.6
			c-0.2,0.3-0.3,0.8-0.3,1.3c0,0.6,0.2,1.1,0.6,1.5c0.4,0.4,1,0.6,1.7,0.6c0.6,0,1.1-0.2,1.5-0.7c0.4-0.4,0.6-1.1,0.6-1.8
			c0-1-0.4-1.8-1-2.4C188.4,442.6,187.5,442.3,186.3,442.3"/>
		<path class="st3" d="M198.5,437.5c0.4-0.4,0.5-0.9,0.5-1.5v-0.2c0-0.6-0.2-1.1-0.5-1.5c-0.4-0.4-0.9-0.6-1.6-0.6
			c-0.7,0-1.2,0.2-1.5,0.6c-0.4,0.4-0.5,0.9-0.5,1.5v0.2c0,0.6,0.2,1.1,0.5,1.5c0.4,0.4,0.9,0.6,1.5,0.6
			C197.6,438.1,198.2,437.9,198.5,437.5"/>
	</g>
	<polygon class="st1" points="198.6,442.3 192.5,443.5 192.5,444.8 195.4,445.3 195.4,461.2 192.5,461.2 192.5,463 201.5,463 
		201.5,461.2 198.6,461.2 	"/>
	<g>
		<defs>
			<rect id="SVGID_7_" x="-2556.1" y="-952" width="4993.8" height="3531"/>
		</defs>
		<clipPath id="SVGID_8_">
			<use xlink:href="#SVGID_7_"  style="overflow:visible;"/>
		</clipPath>
		<path class="st4" d="M216.7,457.4c0,1.3-0.4,2.3-1.3,3c-0.9,0.6-2,1-3.2,1c-1.2,0-2.2-0.3-2.9-0.8c-0.7-0.5-1-1.3-1-2.3v-0.8
			c0-0.6,0.1-1.2,0.3-1.6c0.2-0.5,0.5-0.9,1-1.2c0.4-0.3,1-0.6,1.8-0.7c0.8-0.2,1.7-0.3,2.8-0.3h2.5V457.4z M219.9,448.6
			c0-2-0.6-3.5-1.8-4.6c-1.2-1.1-2.8-1.6-5-1.6c-1.2,0-2.2,0.1-3.2,0.4c-0.9,0.2-1.7,0.6-2.3,1c-0.6,0.4-1.1,0.9-1.4,1.4
			c-0.3,0.5-0.5,1.1-0.5,1.7c0,0.8,0.2,1.3,0.6,1.7c0.4,0.4,0.9,0.6,1.5,0.6c0.7,0,1.2-0.2,1.6-0.6c0.4-0.4,0.6-0.9,0.6-1.6
			c0-0.6-0.1-1-0.4-1.3c-0.3-0.3-0.6-0.5-0.8-0.7v-0.1c0.4-0.2,0.8-0.4,1.4-0.5c0.6-0.1,1.2-0.2,1.9-0.2c1.5,0,2.7,0.4,3.5,1.3
			c0.8,0.8,1.2,2.1,1.2,3.7v3h-2.9c-1.6,0-3,0.1-4.2,0.4c-1.2,0.3-2.1,0.6-2.8,1.1c-0.7,0.5-1.2,1.1-1.5,1.9
			c-0.3,0.7-0.5,1.6-0.5,2.6c0,1.7,0.5,3,1.6,4c1.1,1,2.5,1.5,4.4,1.5c0.9,0,1.7-0.1,2.3-0.3c0.7-0.2,1.2-0.5,1.7-0.8
			c0.5-0.3,0.9-0.7,1.2-1.1c0.3-0.4,0.5-0.8,0.7-1.3h0.2v0.3c0,1,0.3,1.7,0.8,2.3c0.6,0.6,1.3,0.9,2.3,0.9c0.6,0,1.1-0.1,1.6-0.2
			c0.5-0.2,0.9-0.3,1.2-0.5v-1.4h-2.9V448.6z"/>
	</g>
	<polygon class="st1" points="254,437.4 257,437.4 257,457.6 256.8,457.6 242.1,435.6 235.5,435.6 235.5,437.4 238.4,437.4 
		238.4,461.2 235.5,461.2 235.5,463 243.5,463 243.5,461.2 240.6,461.2 240.6,439.4 240.7,439.4 256.5,463 259.1,463 259.1,437.4 
		262,437.4 262,435.6 254,435.6 	"/>
	<g>
		<defs>
			<rect id="SVGID_9_" x="-2556.1" y="-952" width="4993.8" height="3531"/>
		</defs>
		<clipPath id="SVGID_10_">
			<use xlink:href="#SVGID_9_"  style="overflow:visible;"/>
		</clipPath>
		<path class="st5" d="M277.5,457.4c0,1.3-0.4,2.3-1.3,3c-0.9,0.6-2,1-3.2,1c-1.2,0-2.2-0.3-2.9-0.8c-0.7-0.5-1-1.3-1-2.3v-0.8
			c0-0.6,0.1-1.2,0.3-1.6c0.2-0.5,0.5-0.9,1-1.2c0.4-0.3,1-0.6,1.8-0.7c0.8-0.2,1.7-0.3,2.8-0.3h2.5V457.4z M280.7,448.6
			c0-2-0.6-3.5-1.8-4.6c-1.2-1.1-2.8-1.6-5-1.6c-1.2,0-2.2,0.1-3.2,0.4c-0.9,0.2-1.7,0.6-2.3,1c-0.6,0.4-1.1,0.9-1.4,1.4
			c-0.3,0.5-0.5,1.1-0.5,1.7c0,0.8,0.2,1.3,0.6,1.7c0.4,0.4,0.9,0.6,1.5,0.6c0.7,0,1.2-0.2,1.6-0.6c0.4-0.4,0.6-0.9,0.6-1.6
			c0-0.6-0.1-1-0.4-1.3c-0.3-0.3-0.6-0.5-0.8-0.7v-0.1c0.4-0.2,0.8-0.4,1.4-0.5c0.6-0.1,1.2-0.2,1.9-0.2c1.5,0,2.7,0.4,3.5,1.3
			c0.8,0.8,1.2,2.1,1.2,3.7v3h-2.9c-1.6,0-3,0.1-4.2,0.4c-1.2,0.3-2.1,0.6-2.8,1.1c-0.7,0.5-1.2,1.1-1.5,1.9
			c-0.3,0.7-0.5,1.6-0.5,2.6c0,1.7,0.5,3,1.6,4c1.1,1,2.5,1.5,4.4,1.5c0.9,0,1.7-0.1,2.3-0.3c0.7-0.2,1.2-0.5,1.7-0.8
			c0.5-0.3,0.9-0.7,1.2-1.1c0.3-0.4,0.5-0.8,0.7-1.3h0.2v0.3c0,1,0.3,1.7,0.8,2.3c0.6,0.6,1.3,0.9,2.3,0.9c0.6,0,1.1-0.1,1.6-0.2
			c0.5-0.2,0.9-0.3,1.2-0.5v-1.4h-2.9V448.6z"/>
		<path class="st5" d="M303.6,454.5c0,2-0.5,3.7-1.5,4.9c-1,1.2-2.4,1.8-4.2,1.8c-0.6,0-1.3-0.1-1.9-0.3c-0.6-0.2-1.2-0.4-1.7-0.8
			c-0.5-0.3-0.9-0.8-1.2-1.3c-0.3-0.5-0.5-1.1-0.5-1.7v-8.6c0-0.6,0.1-1.2,0.5-1.7c0.3-0.5,0.7-0.9,1.2-1.3c0.5-0.3,1-0.6,1.7-0.8
			c0.6-0.2,1.3-0.3,1.9-0.3c1.8,0,3.2,0.6,4.2,1.8c1,1.2,1.5,2.8,1.5,4.9V454.5z M298.8,442.3c-1.6,0-2.9,0.3-3.8,1
			c-1,0.7-1.7,1.5-2.1,2.5h-0.2v-3.5l-6.1,1.2v1.3l2.9,0.5V469h-2.9v1.8h9.8V469h-3.7v-9h0.2c0.4,1,1.2,1.8,2.1,2.5
			c1,0.7,2.3,1,3.8,1c2.5,0,4.5-0.9,6-2.7c1.5-1.8,2.3-4.4,2.3-7.9c0-3.4-0.8-6-2.3-7.9C303.3,443.2,301.3,442.3,298.8,442.3"/>
		<path class="st5" d="M326.1,455c0,0.9-0.1,1.8-0.3,2.6c-0.2,0.8-0.6,1.5-1,2.1c-0.5,0.6-1,1-1.8,1.4c-0.7,0.3-1.6,0.5-2.5,0.5
			c-1,0-1.8-0.2-2.5-0.5c-0.7-0.3-1.3-0.8-1.7-1.4c-0.5-0.6-0.8-1.3-1-2.1c-0.2-0.8-0.3-1.7-0.3-2.6v-4.3c0-0.9,0.1-1.8,0.3-2.6
			c0.2-0.8,0.6-1.5,1-2.1c0.5-0.6,1-1,1.7-1.4c0.7-0.3,1.6-0.5,2.5-0.5c1,0,1.8,0.2,2.5,0.5c0.7,0.3,1.3,0.8,1.8,1.4
			c0.5,0.6,0.8,1.3,1,2.1c0.2,0.8,0.3,1.7,0.3,2.6V455z M327.2,445.2c-0.8-0.9-1.8-1.6-2.9-2.1c-1.2-0.5-2.4-0.7-3.8-0.7
			c-1.4,0-2.7,0.2-3.8,0.7c-1.2,0.5-2.1,1.2-2.9,2.1c-0.8,0.9-1.4,2-1.9,3.4c-0.4,1.3-0.7,2.8-0.7,4.3c0,1.6,0.2,3.1,0.7,4.4
			c0.4,1.3,1.1,2.4,1.9,3.3c0.8,0.9,1.8,1.6,2.9,2.1c1.2,0.5,2.4,0.7,3.8,0.7c1.4,0,2.7-0.2,3.8-0.7c1.1-0.5,2.1-1.2,2.9-2.1
			c0.8-0.9,1.4-2,1.9-3.3c0.4-1.3,0.7-2.7,0.7-4.4c0-1.6-0.2-3-0.7-4.3C328.6,447.2,328,446.1,327.2,445.2"/>
	</g>
	<polygon class="st1" points="339,433.2 332.9,434.3 332.9,435.7 335.8,436.2 335.8,461.2 332.9,461.2 332.9,463 341.9,463 
		341.9,461.2 339,461.2 	"/>
	<g>
		<defs>
			<rect id="SVGID_11_" x="-2556.1" y="-952" width="4993.8" height="3531"/>
		</defs>
		<clipPath id="SVGID_12_">
			<use xlink:href="#SVGID_11_"  style="overflow:visible;"/>
		</clipPath>
		<path class="st6" d="M359.1,451h-10.5v-0.5c0-0.9,0.1-1.8,0.4-2.5c0.2-0.8,0.6-1.4,1-2c0.5-0.6,1-1,1.7-1.3
			c0.7-0.3,1.5-0.5,2.3-0.5c0.9,0,1.7,0.2,2.3,0.5c0.6,0.3,1.2,0.8,1.6,1.3c0.4,0.6,0.7,1.3,0.9,2c0.2,0.8,0.3,1.6,0.3,2.5V451z
			 M360.2,445c-0.7-0.9-1.6-1.5-2.6-2c-1-0.5-2.2-0.7-3.6-0.7c-1.3,0-2.5,0.3-3.6,0.8c-1.1,0.5-2,1.2-2.8,2.2
			c-0.8,0.9-1.4,2.1-1.9,3.4c-0.5,1.3-0.7,2.7-0.7,4.3c0,1.6,0.2,3,0.6,4.4c0.4,1.3,1,2.4,1.8,3.3c0.8,0.9,1.7,1.6,2.9,2.1
			c1.1,0.5,2.4,0.8,3.9,0.8c1.1,0,2-0.2,2.9-0.5c0.9-0.3,1.6-0.7,2.3-1.2c0.7-0.5,1.2-1,1.7-1.7c0.5-0.6,0.8-1.3,1.1-2l-1.3-0.8
			c-0.6,1.1-1.3,1.9-2.3,2.6c-1,0.7-2.2,1-3.9,1c-1.9,0-3.3-0.6-4.4-1.9c-1.1-1.3-1.7-3-1.7-5.2v-1h13.9v-0.9c0-1.4-0.2-2.7-0.6-3.9
			C361.5,446.9,361,445.8,360.2,445"/>
		<path class="st6" d="M371.7,437.5H370l-0.9,3.5c-0.1,0.3-0.2,0.5-0.3,0.8c-0.1,0.2-0.2,0.4-0.4,0.5c-0.2,0.1-0.5,0.3-0.8,0.3
			s-0.8,0.1-1.3,0.1h-0.4v1.9h2.6v14.8c0,1.4,0.3,2.3,0.8,2.9c0.5,0.6,1.5,0.8,2.9,0.8c0.4,0,0.9,0,1.4-0.1c0.5,0,0.9-0.1,1.4-0.2
			c0.4-0.1,0.8-0.2,1.2-0.3c0.3-0.1,0.6-0.2,0.9-0.3v-1.3h-5.2v-16.4h5.2v-1.9h-5.2V437.5z"/>
		<path class="st6" d="M392,457.4c0,1.3-0.4,2.3-1.3,3c-0.9,0.6-2,1-3.2,1c-1.2,0-2.2-0.3-2.9-0.8c-0.7-0.5-1-1.3-1-2.3v-0.8
			c0-0.6,0.1-1.2,0.3-1.6c0.2-0.5,0.5-0.9,1-1.2c0.4-0.3,1-0.6,1.8-0.7c0.8-0.2,1.7-0.3,2.8-0.3h2.5V457.4z M395.2,448.6
			c0-2-0.6-3.5-1.8-4.6c-1.2-1.1-2.8-1.6-5-1.6c-1.2,0-2.2,0.1-3.2,0.4c-0.9,0.2-1.7,0.6-2.3,1c-0.6,0.4-1.1,0.9-1.4,1.4
			c-0.3,0.5-0.5,1.1-0.5,1.7c0,0.8,0.2,1.3,0.6,1.7c0.4,0.4,0.9,0.6,1.5,0.6c0.7,0,1.2-0.2,1.6-0.6c0.4-0.4,0.6-0.9,0.6-1.6
			c0-0.6-0.1-1-0.4-1.3c-0.3-0.3-0.6-0.5-0.8-0.7v-0.1c0.4-0.2,0.8-0.4,1.4-0.5c0.6-0.1,1.2-0.2,1.9-0.2c1.5,0,2.7,0.4,3.5,1.3
			c0.8,0.8,1.2,2.1,1.2,3.7v3h-2.9c-1.6,0-3,0.1-4.2,0.4c-1.2,0.3-2.1,0.6-2.8,1.1c-0.7,0.5-1.2,1.1-1.5,1.9
			c-0.3,0.7-0.5,1.6-0.5,2.6c0,1.7,0.5,3,1.6,4c1.1,1,2.5,1.5,4.4,1.5c0.9,0,1.7-0.1,2.3-0.3c0.7-0.2,1.2-0.5,1.7-0.8
			c0.5-0.3,0.9-0.7,1.2-1.1c0.3-0.4,0.5-0.8,0.7-1.3h0.2v0.3c0,1,0.3,1.7,0.8,2.3c0.6,0.6,1.3,0.9,2.3,0.9c0.6,0,1.1-0.1,1.6-0.2
			c0.5-0.2,0.9-0.3,1.2-0.5v-1.4h-2.9V448.6z"/>
		<path class="st6" d="M420.3,449.9c0-2.5-0.5-4.4-1.6-5.7c-1.1-1.3-2.8-1.9-5.2-1.9c-0.8,0-1.5,0.1-2.2,0.3
			c-0.7,0.2-1.2,0.5-1.7,0.8c-0.5,0.3-0.9,0.7-1.2,1.1c-0.3,0.4-0.6,0.8-0.7,1.2h-0.2v-3.5l-6,1.2v1.3l2.9,0.5v15.9h-2.9v1.8h9v-1.8
			h-2.9v-12.7c0-0.7,0.1-1.3,0.4-1.8c0.3-0.5,0.6-0.9,1.1-1.3c0.5-0.3,1-0.6,1.5-0.7c0.6-0.2,1.1-0.2,1.7-0.2c3.2,0,4.7,1.9,4.7,5.6
			v11h-2.9v1.8h9v-1.8h-2.9V449.9z"/>
		<path class="st6" d="M438.4,457.4c0,1.3-0.4,2.3-1.3,3c-0.9,0.6-2,1-3.2,1c-1.2,0-2.2-0.3-2.9-0.8c-0.7-0.5-1-1.3-1-2.3v-0.8
			c0-0.6,0.1-1.2,0.3-1.6c0.2-0.5,0.5-0.9,1-1.2c0.4-0.3,1-0.6,1.8-0.7c0.8-0.2,1.7-0.3,2.8-0.3h2.5V457.4z M441.6,448.6
			c0-2-0.6-3.5-1.8-4.6c-1.2-1.1-2.8-1.6-5-1.6c-1.2,0-2.2,0.1-3.2,0.4c-0.9,0.2-1.7,0.6-2.3,1c-0.6,0.4-1.1,0.9-1.4,1.4
			c-0.3,0.5-0.5,1.1-0.5,1.7c0,0.8,0.2,1.3,0.6,1.7c0.4,0.4,0.9,0.6,1.5,0.6c0.7,0,1.2-0.2,1.6-0.6c0.4-0.4,0.6-0.9,0.6-1.6
			c0-0.6-0.1-1-0.4-1.3c-0.3-0.3-0.6-0.5-0.8-0.7v-0.1c0.4-0.2,0.8-0.4,1.4-0.5c0.6-0.1,1.2-0.2,1.9-0.2c1.5,0,2.7,0.4,3.5,1.3
			c0.8,0.8,1.2,2.1,1.2,3.7v3h-2.9c-1.6,0-3,0.1-4.2,0.4c-1.2,0.3-2.1,0.6-2.8,1.1c-0.7,0.5-1.2,1.1-1.5,1.9
			c-0.3,0.7-0.5,1.6-0.5,2.6c0,1.7,0.5,3,1.6,4c1.1,1,2.5,1.5,4.4,1.5c0.9,0,1.7-0.1,2.3-0.3c0.7-0.2,1.2-0.5,1.7-0.8
			c0.5-0.3,0.9-0.7,1.2-1.1c0.3-0.4,0.5-0.8,0.7-1.3h0.2v0.3c0,1,0.3,1.7,0.8,2.3c0.6,0.6,1.3,0.9,2.3,0.9c0.6,0,1.1-0.1,1.6-0.2
			c0.5-0.2,0.9-0.3,1.2-0.5v-1.4h-2.9V448.6z"/>
	</g>
	<polygon class="st1" points="365.2,389.9 365.2,395 389.4,395 389.4,389.9 383.3,389.9 383.3,340.4 389.4,340.4 389.4,335.3 
		369.8,335.3 355.5,366.4 355.1,366.4 340.8,335.3 321.1,335.3 321.1,340.4 327.2,340.4 327.2,389.9 321.1,389.9 321.1,395 
		339.4,395 339.4,389.9 333.3,389.9 333.3,345.3 333.7,345.3 338.4,356.5 349.8,380.4 354.8,380.4 366.3,356.5 370.9,345.3 
		371.3,345.3 371.3,389.9 	"/>
	<path class="st1" d="M446,371.1l8.6-26.5h0.4l8.6,26.5H446z M462.4,395.1h23.7V390h-4.4l-18.8-54.6h-10.7L433.4,390H429v5.1h18.1
		V390H440l4.4-13.4h20.6l4.4,13.4h-7.1V395.1z"/>
</g>
<g>
	<g>
		<defs>
			<rect id="SVGID_13_" x="-2042.4" y="-1406.3" width="4993.8" height="3531"/>
		</defs>
		<clipPath id="SVGID_14_">
			<use xlink:href="#SVGID_13_"  style="overflow:visible;"/>
		</clipPath>
		<path class="st7" d="M789-167.2v-73.4l28.8,73.4H789z M781.4-167.2h-67.6l16.5-66.3c18.1-6.9,30.9-24.5,30.9-44.9v-2.9
			c18.1,2.4,20.1,22.4,20.1,31.3V-167.2z M713.1-237.9c-15.4,0-29.2-8.5-36.1-22.1v-21.6h76.7v3.2
			C753.7-256.1,735.5-237.9,713.1-237.9 M669.5-250.9h-28.1v-30.6h28.1V-250.9z M826.4-161.3c0.7-1,0.9-2.3,0.4-3.5l-40.5-103.4
			c-4.5-13.4-14.6-21-28.8-21h-84.3h-35.7c-2.1,0-3.8,1.7-3.8,3.8v38.2c0,2.1,1.7,3.8,3.8,3.8h35.7c1.9,0,3.5-1.5,3.7-3.4
			c9,10.2,22.2,16.4,36.2,16.4c3,0,6-0.3,8.8-0.8l-16.7,66.8c-0.3,1.1,0,2.3,0.7,3.2c0.7,0.9,1.8,1.5,3,1.5h114.3
			C824.5-159.6,825.7-160.3,826.4-161.3"/>
		<path class="st7" d="M824.8-356.6c2.9,0,5.6,1.2,7.6,3.3c0.7,0.8,1.7,1.2,2.7,1.2c1,0,2-0.4,2.8-1.1l6.1-6.1
			c0.7-0.7,1.1-1.7,1.1-2.8c0-1-0.5-2-1.2-2.7c-2.1-1.9-3.3-4.7-3.3-7.6c0-5.7,4.6-10.3,10.3-10.3c5.7,0,10.3,4.6,10.3,10.3
			c0,2.9-1.2,5.6-3.3,7.6c-0.8,0.7-1.2,1.7-1.2,2.7c0,1,0.4,2,1.1,2.8l6.1,6.1c0.7,0.7,1.7,1.1,2.8,1.1c1,0,2-0.5,2.7-1.2
			c0.1-0.1,0.2-0.2,0.3-0.3c1.9-1.9,4.5-3,7.3-3c2.7,0,5.3,1.1,7.3,3c1.9,1.9,3,4.5,3,7.3c0,2.7-1.1,5.3-3,7.3c-1.9,1.9-4.5,3-7.3,3
			c-2.7,0-5.3-1.1-7.3-3c-0.1-0.1-0.2-0.2-0.3-0.3c-0.7-0.8-1.7-1.2-2.7-1.2c-1,0-2,0.4-2.8,1.1l-6.1,6.1c-0.7,0.7-1.1,1.7-1.1,2.8
			c0,1,0.5,2,1.2,2.7c0.1,0.1,0.2,0.2,0.3,0.3c4,4,4,10.5,0,14.6c-1.9,1.9-4.5,3-7.3,3c-2.7,0-5.3-1.1-7.3-3c-4-4-4-10.5,0-14.6
			c0.1-0.1,0.2-0.2,0.3-0.3c0.8-0.7,1.2-1.7,1.2-2.7c0-1-0.4-2-1.1-2.8l-6.1-6.1c-0.7-0.7-1.7-1.1-2.7-1.1c0,0-0.1,0-0.1,0
			c-1,0-2,0.5-2.7,1.2c-1.9,2.1-4.7,3.3-7.6,3.3c-5.7,0-10.3-4.6-10.3-10.3C814.6-352,819.2-356.6,824.8-356.6 M824.8-328.5
			c3.7,0,7.2-1.1,10.2-3.2l1.2,1.2c-4.8,7-4.1,16.6,2,22.8c3.5,3.5,8,5.2,12.6,5.2c4.6,0,9.1-1.7,12.6-5.2c3.4-3.4,5.2-7.9,5.2-12.6
			c0-3.7-1.1-7.2-3.2-10.2l1.2-1.2c3,2.1,6.5,3.2,10.2,3.2c4.8,0,9.3-1.9,12.6-5.2c7-7,7-18.3,0-25.2c-3.4-3.4-7.9-5.2-12.6-5.2
			c-3.7,0-7.2,1.1-10.2,3.2l-1.2-1.2c2.1-3,3.2-6.5,3.2-10.2c0-9.8-8-17.8-17.8-17.8c-9.8,0-17.9,8-17.9,17.8
			c0,3.7,1.1,7.2,3.2,10.2L835-361c-3-2.1-6.5-3.2-10.2-3.2c-9.8,0-17.8,8-17.8,17.8C807-336.5,815-328.5,824.8-328.5"/>
		<path class="st7" d="M850.8-403.5c31.5,0,57.2,25.7,57.2,57.2c0,31.5-25.7,57.2-57.2,57.2c-31.5,0-57.2-25.7-57.2-57.2
			C793.7-377.9,819.3-403.5,850.8-403.5 M850.8-281.6c35.7,0,64.8-29.1,64.8-64.8c0-35.7-29-64.8-64.8-64.8
			c-35.7,0-64.8,29-64.8,64.8C786.1-310.6,815.1-281.6,850.8-281.6"/>
	</g>
	<polygon class="st1" points="563,-64.4 563,-59.3 591.1,-59.3 591.1,-64.4 583,-64.4 583,-113.4 595.3,-113.4 595.3,-103.5 
		604.1,-103.5 604.1,-119 550,-119 550,-103.5 558.8,-103.5 558.8,-113.4 571.1,-113.4 571.1,-64.4 	"/>
	<g>
		<defs>
			<rect id="SVGID_15_" x="-2042.4" y="-1406.3" width="4993.8" height="3531"/>
		</defs>
		<clipPath id="SVGID_16_">
			<use xlink:href="#SVGID_15_"  style="overflow:visible;"/>
		</clipPath>
		<path class="st8" d="M679.7-93.6c-1.6,1.5-3.9,2.2-6.9,2.2h-10v-22.1h10c3,0,5.3,0.7,6.9,2.2c1.6,1.5,2.4,3.6,2.4,6.4v4.8
			C682.1-97.2,681.3-95.1,679.7-93.6 M700.9-59.3v-5.1h-0.5c-1.9,0-3.5-0.4-4.8-1.2c-1.3-0.8-2.5-2.2-3.6-4.2l-10.8-18.6
			c3.9-0.8,7-2.5,9.5-5.2c2.4-2.7,3.7-6.1,3.7-10.2c0-2.6-0.4-4.9-1.3-6.8c-0.9-1.9-2.1-3.5-3.6-4.8c-1.6-1.3-3.4-2.2-5.6-2.8
			c-2.2-0.6-4.6-0.9-7.2-0.9h-31.9v5.1h6.1v49.5h-6.1v5.1h24.1v-5.1h-6.1v-21.7h7.5l9.6,18.7c0.7,1.4,1.5,2.6,2.3,3.6
			c0.8,1,1.7,1.9,2.8,2.6c1.1,0.7,2.3,1.2,3.7,1.5c1.4,0.3,3,0.5,4.9,0.5H700.9z"/>
	</g>
	<path class="st1" d="M755.4-83.2l8.6-26.5h0.4l8.6,26.5H755.4z M771.8-59.3h23.7v-5.1h-4.4L772.3-119h-10.7l-18.8,54.6h-4.4v5.1
		h18.1v-5.1h-7.1l4.4-13.4h20.6l4.4,13.4h-7.1V-59.3z"/>
	<path class="st9" d="M960.3-86.2l8.6-26.5h0.4l8.6,26.5H960.3z M995.1-64.4L976.2-119h-10.7l-18.8,54.6h-4.4v5.1h18.1v-5.1h-7.1
		l4.4-13.4h20.6l4.4,13.4h-7.1v5.1h23.7v-5.1H995.1z"/>
	<g>
		<defs>
			<rect id="SVGID_17_" x="-2042.4" y="-1406.3" width="4993.8" height="3531"/>
		</defs>
		<clipPath id="SVGID_18_">
			<use xlink:href="#SVGID_17_"  style="overflow:visible;"/>
		</clipPath>
		<path class="st10" d="M601.9-6.8l-2-0.5c-1.8-0.5-3.1-1.1-3.9-1.9c-0.8-0.8-1.2-1.9-1.2-3.3c0-1.4,0.5-2.5,1.4-3.3
			s2.3-1.3,4.1-1.3c1.1,0,2,0.1,2.8,0.3c0.8,0.2,1.4,0.5,1.8,0.8c0.5,0.4,0.8,0.8,1,1.3c0.2,0.5,0.3,1.1,0.3,1.8v1.8h2.8v-7.6h-2.8
			v2.1h-0.2c-0.4-0.8-1.1-1.4-2-1.9c-1-0.5-2.2-0.7-3.7-0.7c-1.3,0-2.4,0.2-3.5,0.5c-1.1,0.3-2,0.8-2.7,1.5
			c-0.8,0.6-1.3,1.4-1.8,2.3c-0.4,0.9-0.6,1.9-0.6,3c0,2.2,0.7,3.9,2,5.2c1.3,1.3,3.2,2.2,5.6,2.8l2.2,0.5c1.6,0.4,2.9,1.1,3.6,1.8
			c0.8,0.8,1.2,1.9,1.2,3.3c0,1.6-0.5,2.9-1.5,3.9c-1,1-2.6,1.4-4.9,1.4c-1.1,0-2-0.1-2.7-0.3c-0.7-0.2-1.3-0.6-1.8-1
			c-0.5-0.4-0.8-0.9-1-1.5c-0.2-0.6-0.3-1.2-0.3-1.8V0.7h-2.8v8h2.8V6.4h0.2c0.4,0.9,1.1,1.5,2.2,2.1c1,0.5,2.4,0.8,4,0.8
			c1.4,0,2.7-0.2,3.8-0.6c1.1-0.4,2-1,2.8-1.7c0.8-0.7,1.3-1.6,1.7-2.6c0.4-1,0.6-2.1,0.6-3.3c0-2-0.6-3.7-1.9-4.9
			C606.1-5.2,604.2-6.1,601.9-6.8"/>
		<path class="st10" d="M625.7,3.1c0,1.3-0.4,2.3-1.3,3s-2,1-3.2,1c-1.2,0-2.2-0.3-2.9-0.8c-0.7-0.5-1-1.3-1-2.3V3.2
			c0-0.6,0.1-1.2,0.3-1.6c0.2-0.5,0.5-0.9,1-1.2c0.4-0.3,1-0.6,1.8-0.7c0.8-0.2,1.7-0.3,2.8-0.3h2.5V3.1z M628.9-5.7
			c0-2-0.6-3.5-1.8-4.6c-1.2-1.1-2.8-1.6-5-1.6c-1.2,0-2.2,0.1-3.2,0.4c-0.9,0.2-1.7,0.6-2.3,1c-0.6,0.4-1.1,0.9-1.4,1.4
			c-0.3,0.5-0.5,1.1-0.5,1.7c0,0.8,0.2,1.3,0.6,1.7c0.4,0.4,0.9,0.6,1.5,0.6c0.7,0,1.2-0.2,1.6-0.6c0.4-0.4,0.6-0.9,0.6-1.6
			c0-0.6-0.1-1-0.4-1.3c-0.3-0.3-0.6-0.5-0.8-0.7v-0.1c0.4-0.2,0.8-0.4,1.4-0.5c0.6-0.1,1.2-0.2,1.9-0.2c1.5,0,2.7,0.4,3.5,1.3
			c0.8,0.8,1.2,2.1,1.2,3.7v3h-2.9c-1.6,0-3,0.1-4.2,0.4c-1.2,0.3-2.1,0.6-2.8,1.1c-0.7,0.5-1.2,1.1-1.5,1.9
			c-0.3,0.7-0.5,1.6-0.5,2.6c0,1.7,0.5,3,1.6,4c1.1,1,2.5,1.5,4.4,1.5c0.9,0,1.7-0.1,2.3-0.3c0.7-0.2,1.2-0.5,1.7-0.8
			c0.5-0.3,0.9-0.7,1.2-1.1c0.3-0.4,0.5-0.8,0.7-1.3h0.2V6c0,1,0.3,1.7,0.8,2.3c0.6,0.6,1.3,0.9,2.3,0.9c0.6,0,1.1-0.1,1.6-0.2
			c0.5-0.2,0.9-0.3,1.2-0.5V7h-2.9V-5.7z"/>
		<path class="st10" d="M646.4-12c-0.7,0-1.3,0.1-1.9,0.3c-0.5,0.2-1,0.5-1.4,0.8c-0.4,0.3-0.7,0.7-1,1.1c-0.3,0.4-0.5,0.8-0.7,1.3
			h-0.2V-12l-6,1.2v1.3l2.9,0.5V6.9h-2.9v1.8h9.8V6.9h-3.7V-5.7c0-0.6,0.1-1.1,0.4-1.6c0.3-0.5,0.6-1,1.1-1.5
			c0.4-0.4,0.9-0.8,1.5-1.1c0.5-0.3,1.1-0.4,1.6-0.4c0.2,0,0.4,0,0.6,0c0.2,0,0.3,0,0.4,0.1v0.1c-0.3,0.1-0.5,0.2-0.8,0.6
			c-0.2,0.3-0.3,0.8-0.3,1.3c0,0.6,0.2,1.1,0.6,1.5c0.4,0.4,1,0.6,1.7,0.6c0.6,0,1.1-0.2,1.5-0.7c0.4-0.4,0.6-1.1,0.6-1.8
			c0-1-0.4-1.8-1-2.4C648.4-11.7,647.5-12,646.4-12"/>
		<path class="st10" d="M658.4-16.8h-1.8l-0.9,3.5c-0.1,0.3-0.2,0.5-0.3,0.8c-0.1,0.2-0.2,0.4-0.4,0.5c-0.2,0.1-0.5,0.3-0.8,0.3
			c-0.3,0.1-0.8,0.1-1.3,0.1h-0.4v1.9h2.6V5.2c0,1.4,0.3,2.3,0.8,2.9c0.5,0.6,1.5,0.8,2.9,0.8c0.4,0,0.9,0,1.4-0.1
			c0.5,0,0.9-0.1,1.4-0.2c0.4-0.1,0.8-0.2,1.2-0.3c0.3-0.1,0.6-0.2,0.9-0.3V6.8h-5.2V-9.6h5.2v-1.9h-5.2V-16.8z"/>
		<path class="st10" d="M681.5,0.7c0,0.9-0.1,1.8-0.3,2.6c-0.2,0.8-0.6,1.5-1,2.1s-1,1-1.8,1.4c-0.7,0.3-1.6,0.5-2.5,0.5
			c-1,0-1.8-0.2-2.5-0.5c-0.7-0.3-1.3-0.8-1.7-1.4s-0.8-1.3-1-2.1c-0.2-0.8-0.3-1.7-0.3-2.6v-4.3c0-0.9,0.1-1.8,0.3-2.6
			c0.2-0.8,0.6-1.5,1-2.1c0.5-0.6,1-1,1.7-1.4c0.7-0.3,1.6-0.5,2.5-0.5c1,0,1.8,0.2,2.5,0.5c0.7,0.3,1.3,0.8,1.8,1.4
			c0.5,0.6,0.8,1.3,1,2.1c0.2,0.8,0.3,1.7,0.3,2.6V0.7z M682.6-9.1c-0.8-0.9-1.8-1.6-2.9-2.1c-1.2-0.5-2.4-0.7-3.8-0.7
			c-1.4,0-2.7,0.2-3.8,0.7c-1.1,0.5-2.1,1.2-2.9,2.1c-0.8,0.9-1.4,2-1.9,3.4c-0.4,1.3-0.7,2.8-0.7,4.3c0,1.6,0.2,3.1,0.7,4.4
			c0.4,1.3,1.1,2.4,1.9,3.3c0.8,0.9,1.8,1.6,2.9,2.1c1.2,0.5,2.4,0.7,3.8,0.7c1.4,0,2.7-0.2,3.8-0.7c1.1-0.5,2.1-1.2,2.9-2.1
			c0.8-0.9,1.4-2,1.9-3.3c0.4-1.3,0.7-2.7,0.7-4.4c0-1.6-0.2-3-0.7-4.3S683.4-8.2,682.6-9.1"/>
		<path class="st10" d="M700-12c-0.7,0-1.3,0.1-1.9,0.3s-1,0.5-1.4,0.8c-0.4,0.3-0.7,0.7-1,1.1c-0.3,0.4-0.5,0.8-0.7,1.3h-0.2V-12
			l-6,1.2v1.3l2.9,0.5V6.9h-2.9v1.8h9.8V6.9h-3.7V-5.7c0-0.6,0.1-1.1,0.4-1.6c0.3-0.5,0.6-1,1.1-1.5c0.4-0.4,0.9-0.8,1.5-1.1
			c0.5-0.3,1.1-0.4,1.6-0.4c0.2,0,0.4,0,0.6,0c0.2,0,0.3,0,0.4,0.1v0.1c-0.3,0.1-0.5,0.2-0.8,0.6c-0.2,0.3-0.3,0.8-0.3,1.3
			c0,0.6,0.2,1.1,0.6,1.5c0.4,0.4,1,0.6,1.7,0.6c0.6,0,1.1-0.2,1.5-0.7c0.4-0.4,0.6-1.1,0.6-1.8c0-1-0.4-1.8-1-2.4
			C702.1-11.7,701.2-12,700-12"/>
		<path class="st10" d="M712.3-16.8c0.4-0.4,0.5-0.9,0.5-1.5v-0.2c0-0.6-0.2-1.1-0.5-1.5c-0.4-0.4-0.9-0.6-1.6-0.6
			c-0.7,0-1.2,0.2-1.5,0.6c-0.4,0.4-0.5,0.9-0.5,1.5v0.2c0,0.6,0.2,1.1,0.5,1.5c0.4,0.4,0.9,0.6,1.5,0.6
			C711.4-16.2,711.9-16.4,712.3-16.8"/>
	</g>
	<polygon class="st9" points="712.3,-12 706.2,-10.8 706.2,-9.5 709.1,-9 709.1,6.9 706.2,6.9 706.2,8.7 715.2,8.7 715.2,6.9 
		712.3,6.9 	"/>
	<g>
		<defs>
			<rect id="SVGID_19_" x="-2042.4" y="-1406.3" width="4993.8" height="3531"/>
		</defs>
		<clipPath id="SVGID_20_">
			<use xlink:href="#SVGID_19_"  style="overflow:visible;"/>
		</clipPath>
		<path class="st11" d="M730.4,3.1c0,1.3-0.4,2.3-1.3,3c-0.9,0.6-2,1-3.2,1c-1.2,0-2.2-0.3-2.9-0.8c-0.7-0.5-1-1.3-1-2.3V3.2
			c0-0.6,0.1-1.2,0.3-1.6c0.2-0.5,0.5-0.9,1-1.2c0.4-0.3,1-0.6,1.8-0.7c0.8-0.2,1.7-0.3,2.8-0.3h2.5V3.1z M733.7-5.7
			c0-2-0.6-3.5-1.8-4.6c-1.2-1.1-2.8-1.6-5-1.6c-1.2,0-2.2,0.1-3.2,0.4c-0.9,0.2-1.7,0.6-2.3,1c-0.6,0.4-1.1,0.9-1.4,1.4
			c-0.3,0.5-0.5,1.1-0.5,1.7c0,0.8,0.2,1.3,0.6,1.7c0.4,0.4,0.9,0.6,1.5,0.6c0.7,0,1.2-0.2,1.6-0.6c0.4-0.4,0.6-0.9,0.6-1.6
			c0-0.6-0.1-1-0.4-1.3c-0.3-0.3-0.6-0.5-0.8-0.7v-0.1c0.4-0.2,0.8-0.4,1.4-0.5c0.6-0.1,1.2-0.2,1.9-0.2c1.5,0,2.7,0.4,3.5,1.3
			c0.8,0.8,1.2,2.1,1.2,3.7v3h-2.9c-1.6,0-3,0.1-4.2,0.4c-1.2,0.3-2.1,0.6-2.8,1.1c-0.7,0.5-1.2,1.1-1.5,1.9
			c-0.3,0.7-0.5,1.6-0.5,2.6c0,1.7,0.5,3,1.6,4c1.1,1,2.5,1.5,4.4,1.5c0.9,0,1.7-0.1,2.3-0.3c0.7-0.2,1.2-0.5,1.7-0.8
			c0.5-0.3,0.9-0.7,1.2-1.1c0.3-0.4,0.5-0.8,0.7-1.3h0.2V6c0,1,0.3,1.7,0.8,2.3c0.6,0.6,1.3,0.9,2.3,0.9c0.6,0,1.1-0.1,1.6-0.2
			c0.5-0.2,0.9-0.3,1.2-0.5V7h-2.9V-5.7z"/>
	</g>
	<polygon class="st9" points="767.7,-16.8 770.7,-16.8 770.7,3.3 770.5,3.3 755.8,-18.6 749.2,-18.6 749.2,-16.8 752.1,-16.8 
		752.1,6.9 749.2,6.9 749.2,8.7 757.2,8.7 757.2,6.9 754.3,6.9 754.3,-14.8 754.5,-14.8 770.2,8.7 772.8,8.7 772.8,-16.8 
		775.8,-16.8 775.8,-18.6 767.7,-18.6 	"/>
	<g>
		<defs>
			<rect id="SVGID_21_" x="-2042.4" y="-1406.3" width="4993.8" height="3531"/>
		</defs>
		<clipPath id="SVGID_22_">
			<use xlink:href="#SVGID_21_"  style="overflow:visible;"/>
		</clipPath>
		<path class="st12" d="M791.2,3.1c0,1.3-0.4,2.3-1.3,3s-2,1-3.2,1c-1.2,0-2.2-0.3-2.9-0.8c-0.7-0.5-1-1.3-1-2.3V3.2
			c0-0.6,0.1-1.2,0.3-1.6c0.2-0.5,0.5-0.9,1-1.2c0.4-0.3,1-0.6,1.8-0.7c0.8-0.2,1.7-0.3,2.8-0.3h2.5V3.1z M794.4-5.7
			c0-2-0.6-3.5-1.8-4.6c-1.2-1.1-2.8-1.6-5-1.6c-1.2,0-2.2,0.1-3.2,0.4c-0.9,0.2-1.7,0.6-2.3,1c-0.6,0.4-1.1,0.9-1.4,1.4
			c-0.3,0.5-0.5,1.1-0.5,1.7c0,0.8,0.2,1.3,0.6,1.7c0.4,0.4,0.9,0.6,1.5,0.6c0.7,0,1.2-0.2,1.6-0.6c0.4-0.4,0.6-0.9,0.6-1.6
			c0-0.6-0.1-1-0.4-1.3c-0.3-0.3-0.6-0.5-0.8-0.7v-0.1c0.4-0.2,0.8-0.4,1.4-0.5c0.6-0.1,1.2-0.2,1.9-0.2c1.5,0,2.7,0.4,3.5,1.3
			c0.8,0.8,1.2,2.1,1.2,3.7v3h-2.9c-1.6,0-3,0.1-4.2,0.4c-1.2,0.3-2.1,0.6-2.8,1.1c-0.7,0.5-1.2,1.1-1.5,1.9
			c-0.3,0.7-0.5,1.6-0.5,2.6c0,1.7,0.5,3,1.6,4c1.1,1,2.5,1.5,4.4,1.5c0.9,0,1.7-0.1,2.3-0.3c0.7-0.2,1.2-0.5,1.7-0.8
			c0.5-0.3,0.9-0.7,1.2-1.1c0.3-0.4,0.5-0.8,0.7-1.3h0.2V6c0,1,0.3,1.7,0.8,2.3c0.6,0.6,1.3,0.9,2.3,0.9c0.6,0,1.1-0.1,1.6-0.2
			c0.5-0.2,0.9-0.3,1.2-0.5V7h-2.9V-5.7z"/>
		<path class="st12" d="M817.3,0.3c0,2-0.5,3.7-1.5,4.9c-1,1.2-2.4,1.8-4.2,1.8c-0.6,0-1.3-0.1-1.9-0.3c-0.6-0.2-1.2-0.4-1.7-0.8
			c-0.5-0.3-0.9-0.8-1.2-1.3c-0.3-0.5-0.5-1.1-0.5-1.7v-8.6c0-0.6,0.1-1.2,0.5-1.7c0.3-0.5,0.7-0.9,1.2-1.3c0.5-0.3,1-0.6,1.7-0.8
			c0.6-0.2,1.3-0.3,1.9-0.3c1.8,0,3.2,0.6,4.2,1.8c1,1.2,1.5,2.8,1.5,4.9V0.3z M812.5-12c-1.6,0-2.9,0.3-3.8,1
			c-1,0.7-1.7,1.5-2.1,2.5h-0.2V-12l-6.1,1.2v1.3l2.9,0.5v23.7h-2.9v1.8h9.8v-1.8h-3.7v-9h0.2c0.4,1,1.2,1.8,2.1,2.5
			c1,0.7,2.3,1,3.8,1c2.5,0,4.5-0.9,6-2.7c1.5-1.8,2.3-4.4,2.3-7.9s-0.8-6-2.3-7.9C817-11.1,815-12,812.5-12"/>
		<path class="st12" d="M839.8,0.7c0,0.9-0.1,1.8-0.3,2.6c-0.2,0.8-0.6,1.5-1,2.1s-1,1-1.8,1.4c-0.7,0.3-1.6,0.5-2.5,0.5
			c-1,0-1.8-0.2-2.5-0.5c-0.7-0.3-1.3-0.8-1.7-1.4s-0.8-1.3-1-2.1c-0.2-0.8-0.3-1.7-0.3-2.6v-4.3c0-0.9,0.1-1.8,0.3-2.6
			c0.2-0.8,0.6-1.5,1-2.1c0.5-0.6,1-1,1.7-1.4c0.7-0.3,1.6-0.5,2.5-0.5c1,0,1.8,0.2,2.5,0.5c0.7,0.3,1.3,0.8,1.8,1.4
			c0.5,0.6,0.8,1.3,1,2.1c0.2,0.8,0.3,1.7,0.3,2.6V0.7z M840.9-9.1c-0.8-0.9-1.8-1.6-2.9-2.1c-1.2-0.5-2.4-0.7-3.8-0.7
			c-1.4,0-2.7,0.2-3.8,0.7c-1.2,0.5-2.1,1.2-2.9,2.1c-0.8,0.9-1.4,2-1.9,3.4c-0.4,1.3-0.7,2.8-0.7,4.3c0,1.6,0.2,3.1,0.7,4.4
			c0.4,1.3,1.1,2.4,1.9,3.3c0.8,0.9,1.8,1.6,2.9,2.1c1.2,0.5,2.4,0.7,3.8,0.7c1.4,0,2.7-0.2,3.8-0.7c1.1-0.5,2.1-1.2,2.9-2.1
			c0.8-0.9,1.4-2,1.9-3.3c0.4-1.3,0.7-2.7,0.7-4.4c0-1.6-0.2-3-0.7-4.3S841.7-8.2,840.9-9.1"/>
	</g>
	<polygon class="st9" points="852.7,-21.1 846.6,-19.9 846.6,-18.6 849.5,-18 849.5,6.9 846.6,6.9 846.6,8.7 855.6,8.7 855.6,6.9 
		852.7,6.9 	"/>
	<g>
		<defs>
			<rect id="SVGID_23_" x="-2042.4" y="-1406.3" width="4993.8" height="3531"/>
		</defs>
		<clipPath id="SVGID_24_">
			<use xlink:href="#SVGID_23_"  style="overflow:visible;"/>
		</clipPath>
		<path class="st13" d="M872.9-3.3h-10.5v-0.5c0-0.9,0.1-1.8,0.4-2.5c0.2-0.8,0.6-1.4,1-2c0.5-0.6,1-1,1.7-1.3
			c0.7-0.3,1.5-0.5,2.3-0.5c0.9,0,1.7,0.2,2.3,0.5c0.6,0.3,1.2,0.8,1.6,1.3c0.4,0.6,0.7,1.3,0.9,2c0.2,0.8,0.3,1.6,0.3,2.5V-3.3z
			 M874-9.3c-0.7-0.9-1.6-1.5-2.6-2c-1-0.5-2.2-0.7-3.6-0.7c-1.3,0-2.5,0.3-3.6,0.8c-1.1,0.5-2,1.2-2.8,2.2
			c-0.8,0.9-1.4,2.1-1.9,3.4c-0.5,1.3-0.7,2.7-0.7,4.3c0,1.6,0.2,3,0.6,4.4c0.4,1.3,1,2.4,1.8,3.3c0.8,0.9,1.7,1.6,2.9,2.1
			c1.1,0.5,2.4,0.8,3.9,0.8c1.1,0,2-0.2,2.9-0.5c0.9-0.3,1.6-0.7,2.3-1.2c0.7-0.5,1.2-1,1.7-1.7c0.5-0.6,0.8-1.3,1.1-2l-1.3-0.8
			c-0.6,1.1-1.3,1.9-2.3,2.6c-1,0.7-2.2,1-3.9,1c-1.9,0-3.3-0.6-4.4-1.9c-1.1-1.3-1.7-3-1.7-5.2v-1h13.9v-0.9c0-1.4-0.2-2.7-0.6-3.9
			C875.2-7.4,874.7-8.4,874-9.3"/>
		<path class="st13" d="M885.5-16.8h-1.8l-0.9,3.5c-0.1,0.3-0.2,0.5-0.3,0.8c-0.1,0.2-0.2,0.4-0.4,0.5c-0.2,0.1-0.5,0.3-0.8,0.3
			c-0.3,0.1-0.8,0.1-1.3,0.1h-0.4v1.9h2.6V5.2c0,1.4,0.3,2.3,0.8,2.9c0.5,0.6,1.5,0.8,2.9,0.8c0.4,0,0.9,0,1.4-0.1
			c0.5,0,0.9-0.1,1.4-0.2c0.4-0.1,0.8-0.2,1.2-0.3c0.3-0.1,0.6-0.2,0.9-0.3V6.8h-5.2V-9.6h5.2v-1.9h-5.2V-16.8z"/>
		<path class="st13" d="M905.7,3.1c0,1.3-0.4,2.3-1.3,3s-2,1-3.2,1c-1.2,0-2.2-0.3-2.9-0.8c-0.7-0.5-1-1.3-1-2.3V3.2
			c0-0.6,0.1-1.2,0.3-1.6c0.2-0.5,0.5-0.9,1-1.2c0.4-0.3,1-0.6,1.8-0.7c0.8-0.2,1.7-0.3,2.8-0.3h2.5V3.1z M908.9-5.7
			c0-2-0.6-3.5-1.8-4.6c-1.2-1.1-2.8-1.6-5-1.6c-1.2,0-2.2,0.1-3.2,0.4c-0.9,0.2-1.7,0.6-2.3,1c-0.6,0.4-1.1,0.9-1.4,1.4
			c-0.3,0.5-0.5,1.1-0.5,1.7c0,0.8,0.2,1.3,0.6,1.7c0.4,0.4,0.9,0.6,1.5,0.6c0.7,0,1.2-0.2,1.6-0.6c0.4-0.4,0.6-0.9,0.6-1.6
			c0-0.6-0.1-1-0.4-1.3c-0.3-0.3-0.6-0.5-0.8-0.7v-0.1c0.4-0.2,0.8-0.4,1.4-0.5c0.6-0.1,1.2-0.2,1.9-0.2c1.5,0,2.7,0.4,3.5,1.3
			c0.8,0.8,1.2,2.1,1.2,3.7v3h-2.9c-1.6,0-3,0.1-4.2,0.4c-1.2,0.3-2.1,0.6-2.8,1.1c-0.7,0.5-1.2,1.1-1.5,1.9
			c-0.3,0.7-0.5,1.6-0.5,2.6c0,1.7,0.5,3,1.6,4c1.1,1,2.5,1.5,4.4,1.5c0.9,0,1.7-0.1,2.3-0.3c0.7-0.2,1.2-0.5,1.7-0.8
			c0.5-0.3,0.9-0.7,1.2-1.1c0.3-0.4,0.5-0.8,0.7-1.3h0.2V6c0,1,0.3,1.7,0.8,2.3c0.6,0.6,1.3,0.9,2.3,0.9c0.6,0,1.1-0.1,1.6-0.2
			c0.5-0.2,0.9-0.3,1.2-0.5V7h-2.9V-5.7z"/>
		<path class="st13" d="M934-4.4c0-2.5-0.5-4.4-1.6-5.7c-1.1-1.3-2.8-1.9-5.2-1.9c-0.8,0-1.5,0.1-2.2,0.3c-0.7,0.2-1.2,0.5-1.7,0.8
			c-0.5,0.3-0.9,0.7-1.2,1.1c-0.3,0.4-0.6,0.8-0.7,1.2h-0.2V-12l-6,1.2v1.3l2.9,0.5V6.9h-2.9v1.8h9V6.9h-2.9V-5.7
			c0-0.7,0.1-1.3,0.4-1.8c0.3-0.5,0.6-0.9,1.1-1.3c0.5-0.3,1-0.6,1.5-0.7c0.6-0.2,1.1-0.2,1.7-0.2c3.2,0,4.7,1.9,4.7,5.6v11h-2.9
			v1.8h9V6.9H934V-4.4z"/>
		<path class="st13" d="M952.1,3.1c0,1.3-0.4,2.3-1.3,3c-0.9,0.6-2,1-3.2,1c-1.2,0-2.2-0.3-2.9-0.8c-0.7-0.5-1-1.3-1-2.3V3.2
			c0-0.6,0.1-1.2,0.3-1.6c0.2-0.5,0.5-0.9,1-1.2c0.4-0.3,1-0.6,1.8-0.7c0.8-0.2,1.7-0.3,2.8-0.3h2.5V3.1z M955.3-5.7
			c0-2-0.6-3.5-1.8-4.6c-1.2-1.1-2.8-1.6-5-1.6c-1.2,0-2.2,0.1-3.2,0.4c-0.9,0.2-1.7,0.6-2.3,1c-0.6,0.4-1.1,0.9-1.4,1.4
			c-0.3,0.5-0.5,1.1-0.5,1.7c0,0.8,0.2,1.3,0.6,1.7c0.4,0.4,0.9,0.6,1.5,0.6c0.7,0,1.2-0.2,1.6-0.6c0.4-0.4,0.6-0.9,0.6-1.6
			c0-0.6-0.1-1-0.4-1.3c-0.3-0.3-0.6-0.5-0.8-0.7v-0.1c0.4-0.2,0.8-0.4,1.4-0.5c0.6-0.1,1.2-0.2,1.9-0.2c1.5,0,2.7,0.4,3.5,1.3
			c0.8,0.8,1.2,2.1,1.2,3.7v3h-2.9c-1.6,0-3,0.1-4.2,0.4c-1.2,0.3-2.1,0.6-2.8,1.1c-0.7,0.5-1.2,1.1-1.5,1.9
			c-0.3,0.7-0.5,1.6-0.5,2.6c0,1.7,0.5,3,1.6,4c1.1,1,2.5,1.5,4.4,1.5c0.9,0,1.7-0.1,2.3-0.3c0.7-0.2,1.2-0.5,1.7-0.8
			c0.5-0.3,0.9-0.7,1.2-1.1c0.3-0.4,0.5-0.8,0.7-1.3h0.2V6c0,1,0.3,1.7,0.8,2.3c0.6,0.6,1.3,0.9,2.3,0.9c0.6,0,1.1-0.1,1.6-0.2
			c0.5-0.2,0.9-0.3,1.2-0.5V7h-2.9V-5.7z"/>
	</g>
	<polygon class="st9" points="879,-64.4 879,-59.3 903.1,-59.3 903.1,-64.4 897,-64.4 897,-113.9 903.1,-113.9 903.1,-119 
		883.6,-119 869.2,-87.8 868.9,-87.8 854.5,-119 834.8,-119 834.8,-113.9 840.9,-113.9 840.9,-64.4 834.8,-64.4 834.8,-59.3 
		853.1,-59.3 853.1,-64.4 847,-64.4 847,-109 847.5,-109 852.1,-97.8 863.6,-73.8 868.5,-73.8 880,-97.8 884.6,-109 885,-109 
		885,-64.4 	"/>
</g>
</svg>
