<?xml version="1.0" encoding="utf-8"?>
<!-- Generator: Adobe Illustrator 25.0.0, SVG Export Plug-In . SVG Version: 6.00 Build 0)  -->
<svg version="1.1" id="Livello_1" xmlns="http://www.w3.org/2000/svg" xmlns:xlink="http://www.w3.org/1999/xlink" x="0px" y="0px"
	 viewBox="0 0 512 512" style="enable-background:new 0 0 512 512;" xml:space="preserve">
<style type="text/css">
	.st0{clip-path:url(#SVGID_2_);fill:#0F283D;}
	.st1{fill:#0F283D;}
	.st2{clip-path:url(#SVGID_4_);fill:#0F283D;}
	.st3{clip-path:url(#SVGID_6_);fill:#0F283D;}
	.st4{clip-path:url(#SVGID_8_);fill:#0F283D;}
	.st5{clip-path:url(#SVGID_10_);fill:#0F283D;}
	.st6{clip-path:url(#SVGID_12_);fill:#0F283D;}
</style>
<g>
	<g>
		<defs>
			<rect id="SVGID_1_" x="-2559.1" y="-958" width="4993.8" height="3531"/>
		</defs>
		<clipPath id="SVGID_2_">
			<use xlink:href="#SVGID_1_"  style="overflow:visible;"/>
		</clipPath>
		<path class="st0" d="M272.2,281.1v-73.4l28.8,73.4H272.2z M264.7,281.1h-67.6l16.5-66.3c18.1-6.9,30.9-24.5,30.9-44.9v-2.9
			c18.1,2.4,20.1,22.4,20.1,31.3V281.1z M196.4,210.4c-15.4,0-29.2-8.5-36.1-22.1v-21.6H237v3.2C237,192.2,218.8,210.4,196.4,210.4
			 M152.7,197.3h-28.1v-30.6h28.1V197.3z M309.7,287c0.7-1,0.9-2.3,0.4-3.5l-40.5-103.4c-4.5-13.4-14.6-21-28.8-21h-84.3h-35.7
			c-2.1,0-3.8,1.7-3.8,3.8v38.2c0,2.1,1.7,3.8,3.8,3.8h35.7c1.9,0,3.5-1.5,3.7-3.4c9,10.2,22.2,16.4,36.2,16.4c3,0,6-0.3,8.8-0.8
			l-16.7,66.8c-0.3,1.1,0,2.3,0.7,3.2c0.7,0.9,1.8,1.5,3,1.5h114.3C307.8,288.6,309,288,309.7,287"/>
		<path class="st0" d="M308.1,91.6c2.9,0,5.6,1.2,7.6,3.3c0.7,0.8,1.7,1.2,2.7,1.2c1,0,2-0.4,2.8-1.1l6.1-6.1
			c0.7-0.7,1.1-1.7,1.1-2.8c0-1-0.5-2-1.2-2.7c-2.1-1.9-3.3-4.7-3.3-7.6c0-5.7,4.6-10.3,10.3-10.3c5.7,0,10.3,4.6,10.3,10.3
			c0,2.9-1.2,5.6-3.3,7.6c-0.8,0.7-1.2,1.7-1.2,2.7c0,1,0.4,2,1.1,2.8l6.1,6.1c0.7,0.7,1.7,1.1,2.8,1.1c1,0,2-0.5,2.7-1.2
			c0.1-0.1,0.2-0.2,0.3-0.3c1.9-1.9,4.5-3,7.3-3c2.7,0,5.3,1.1,7.3,3c1.9,1.9,3,4.5,3,7.3c0,2.7-1.1,5.3-3,7.3c-1.9,1.9-4.5,3-7.3,3
			c-2.7,0-5.3-1.1-7.3-3c-0.1-0.1-0.2-0.2-0.3-0.3c-0.7-0.8-1.7-1.2-2.7-1.2c-1,0-2,0.4-2.8,1.1l-6.1,6.1c-0.7,0.7-1.1,1.7-1.1,2.8
			c0,1,0.5,2,1.2,2.7c0.1,0.1,0.2,0.2,0.3,0.3c4,4,4,10.5,0,14.6c-1.9,1.9-4.5,3-7.3,3c-2.7,0-5.3-1.1-7.3-3c-4-4-4-10.5,0-14.6
			c0.1-0.1,0.2-0.2,0.3-0.3c0.8-0.7,1.2-1.7,1.2-2.7c0-1-0.4-2-1.1-2.8l-6.1-6.1c-0.7-0.7-1.7-1.1-2.7-1.1c0,0-0.1,0-0.1,0
			c-1,0-2,0.5-2.7,1.2c-1.9,2.1-4.7,3.3-7.6,3.3c-5.7,0-10.3-4.6-10.3-10.3C297.8,96.2,302.4,91.6,308.1,91.6 M308.1,119.8
			c3.7,0,7.2-1.1,10.2-3.2l1.2,1.2c-4.8,7-4.1,16.6,2,22.8c3.5,3.5,8,5.2,12.6,5.2c4.6,0,9.1-1.7,12.6-5.2c3.4-3.4,5.2-7.9,5.2-12.6
			c0-3.7-1.1-7.2-3.2-10.2l1.2-1.2c3,2.1,6.5,3.2,10.2,3.2c4.8,0,9.3-1.9,12.6-5.2c7-7,7-18.3,0-25.2c-3.4-3.4-7.9-5.2-12.6-5.2
			c-3.7,0-7.2,1.1-10.2,3.2l-1.2-1.2c2.1-3,3.2-6.5,3.2-10.2c0-9.8-8-17.8-17.8-17.8c-9.8,0-17.9,8-17.9,17.8
			c0,3.7,1.1,7.2,3.2,10.2l-1.2,1.2c-3-2.1-6.5-3.2-10.2-3.2c-9.8,0-17.8,8-17.8,17.8C290.3,111.8,298.3,119.8,308.1,119.8"/>
		<path class="st0" d="M334.1,44.7c31.5,0,57.2,25.7,57.2,57.2c0,31.5-25.7,57.2-57.2,57.2c-31.5,0-57.2-25.7-57.2-57.2
			C276.9,70.4,302.6,44.7,334.1,44.7 M334.1,166.7c35.7,0,64.8-29.1,64.8-64.8c0-35.7-29-64.8-64.8-64.8c-35.7,0-64.8,29-64.8,64.8
			C269.4,137.6,298.4,166.7,334.1,166.7"/>
	</g>
	<polygon class="st1" points="46.2,383.9 46.2,389 74.4,389 74.4,383.9 66.3,383.9 66.3,334.8 78.6,334.8 78.6,344.8 87.4,344.8 
		87.4,329.3 33.2,329.3 33.2,344.8 42.1,344.8 42.1,334.8 54.4,334.8 54.4,383.9 	"/>
	<g>
		<defs>
			<rect id="SVGID_3_" x="-2559.1" y="-958" width="4993.8" height="3531"/>
		</defs>
		<clipPath id="SVGID_4_">
			<use xlink:href="#SVGID_3_"  style="overflow:visible;"/>
		</clipPath>
		<path class="st2" d="M163,354.7c-1.6,1.5-3.9,2.2-6.9,2.2h-10v-22.1h10c3,0,5.3,0.7,6.9,2.2c1.6,1.5,2.4,3.6,2.4,6.4v4.8
			C165.4,351.1,164.6,353.2,163,354.7 M184.2,389v-5.1h-0.5c-1.9,0-3.5-0.4-4.8-1.2c-1.3-0.8-2.5-2.2-3.6-4.2L164.5,360
			c3.9-0.8,7-2.5,9.5-5.2c2.4-2.7,3.7-6.1,3.7-10.2c0-2.6-0.4-4.9-1.3-6.8c-0.9-1.9-2.1-3.5-3.6-4.8c-1.6-1.3-3.4-2.2-5.6-2.8
			c-2.2-0.6-4.6-0.9-7.2-0.9H128v5.1h6.1v49.5H128v5.1h24.1v-5.1h-6.1v-21.7h7.5l9.6,18.7c0.7,1.4,1.5,2.6,2.3,3.6
			c0.8,1,1.7,1.9,2.8,2.6c1.1,0.7,2.3,1.2,3.7,1.5c1.4,0.3,3,0.5,4.9,0.5H184.2z"/>
	</g>
	<path class="st1" d="M238.7,365l8.6-26.5h0.4l8.6,26.5H238.7z M255.1,389h23.7v-5.1h-4.4l-18.8-54.6h-10.7l-18.8,54.6h-4.4v5.1
		h18.1v-5.1h-7.1l4.4-13.4h20.6l4.4,13.4h-7.1V389z"/>
	<path class="st1" d="M442.6,365l8.6-26.5h0.4l8.6,26.5H442.6z M478.3,383.9l-18.8-54.6h-10.7L430,383.9h-4.4v5.1h18.1v-5.1h-7.1
		l4.4-13.4h20.6l4.4,13.4H459v5.1h23.7v-5.1H478.3z"/>
	<g>
		<defs>
			<rect id="SVGID_5_" x="-2559.1" y="-958" width="4993.8" height="3531"/>
		</defs>
		<clipPath id="SVGID_6_">
			<use xlink:href="#SVGID_5_"  style="overflow:visible;"/>
		</clipPath>
		<path class="st3" d="M85.1,441.5l-2-0.5c-1.8-0.5-3.1-1.1-3.9-1.9c-0.8-0.8-1.2-1.9-1.2-3.3c0-1.4,0.5-2.5,1.4-3.3
			c0.9-0.8,2.3-1.3,4.1-1.3c1.1,0,2,0.1,2.8,0.3c0.8,0.2,1.4,0.5,1.8,0.8c0.5,0.4,0.8,0.8,1,1.3c0.2,0.5,0.3,1.1,0.3,1.8v1.8h2.8
			v-7.6h-2.8v2.1h-0.2c-0.4-0.8-1.1-1.4-2-1.9c-1-0.5-2.2-0.7-3.7-0.7c-1.3,0-2.4,0.2-3.5,0.5c-1.1,0.3-2,0.8-2.7,1.5
			c-0.8,0.6-1.3,1.4-1.8,2.3c-0.4,0.9-0.6,1.9-0.6,3c0,2.2,0.7,3.9,2,5.2c1.3,1.3,3.2,2.2,5.6,2.8l2.2,0.5c1.6,0.4,2.9,1.1,3.6,1.8
			c0.8,0.8,1.2,1.9,1.2,3.3c0,1.6-0.5,2.9-1.5,3.9c-1,1-2.6,1.4-4.9,1.4c-1.1,0-2-0.1-2.7-0.3c-0.7-0.2-1.3-0.6-1.8-1
			c-0.5-0.4-0.8-0.9-1-1.5c-0.2-0.6-0.3-1.2-0.3-1.8v-1.8h-2.8v8h2.8v-2.3h0.2c0.4,0.9,1.1,1.5,2.2,2.1c1,0.5,2.4,0.8,4,0.8
			c1.4,0,2.7-0.2,3.8-0.6c1.1-0.4,2-1,2.8-1.7c0.8-0.7,1.3-1.6,1.7-2.6c0.4-1,0.6-2.1,0.6-3.3c0-2-0.6-3.7-1.9-4.9
			C89.3,443.1,87.5,442.1,85.1,441.5"/>
		<path class="st3" d="M108.9,451.4c0,1.3-0.4,2.3-1.3,3c-0.9,0.6-2,1-3.2,1c-1.2,0-2.2-0.3-2.9-0.8c-0.7-0.5-1-1.3-1-2.3v-0.8
			c0-0.6,0.1-1.2,0.3-1.6c0.2-0.5,0.5-0.9,1-1.2c0.4-0.3,1-0.6,1.8-0.7c0.8-0.2,1.7-0.3,2.8-0.3h2.5V451.4z M112.2,442.6
			c0-2-0.6-3.5-1.8-4.6c-1.2-1.1-2.8-1.6-5-1.6c-1.2,0-2.2,0.1-3.2,0.4c-0.9,0.2-1.7,0.6-2.3,1c-0.6,0.4-1.1,0.9-1.4,1.4
			c-0.3,0.5-0.5,1.1-0.5,1.7c0,0.8,0.2,1.3,0.6,1.7c0.4,0.4,0.9,0.6,1.5,0.6c0.7,0,1.2-0.2,1.6-0.6c0.4-0.4,0.6-0.9,0.6-1.6
			c0-0.6-0.1-1-0.4-1.3c-0.3-0.3-0.6-0.5-0.8-0.7v-0.1c0.4-0.2,0.8-0.4,1.4-0.5c0.6-0.1,1.2-0.2,1.9-0.2c1.5,0,2.7,0.4,3.5,1.3
			c0.8,0.8,1.2,2.1,1.2,3.7v3h-2.9c-1.6,0-3,0.1-4.2,0.4c-1.2,0.3-2.1,0.6-2.8,1.1c-0.7,0.5-1.2,1.1-1.5,1.9
			c-0.3,0.7-0.5,1.6-0.5,2.6c0,1.7,0.5,3,1.6,4c1.1,1,2.5,1.5,4.4,1.5c0.9,0,1.7-0.1,2.3-0.3c0.7-0.2,1.2-0.5,1.7-0.8
			c0.5-0.3,0.9-0.7,1.2-1.1c0.3-0.4,0.5-0.8,0.7-1.3h0.2v0.3c0,1,0.3,1.7,0.8,2.3c0.6,0.6,1.3,0.9,2.3,0.9c0.6,0,1.1-0.1,1.6-0.2
			c0.5-0.2,0.9-0.3,1.2-0.5v-1.4h-2.9V442.6z"/>
		<path class="st3" d="M129.6,436.3c-0.7,0-1.3,0.1-1.9,0.3s-1,0.5-1.4,0.8c-0.4,0.3-0.7,0.7-1,1.1c-0.3,0.4-0.5,0.8-0.7,1.3h-0.2
			v-3.5l-6,1.2v1.3l2.9,0.5v15.9h-2.9v1.8h9.8v-1.8h-3.7v-12.6c0-0.6,0.1-1.1,0.4-1.6c0.3-0.5,0.6-1,1.1-1.5
			c0.4-0.4,0.9-0.8,1.5-1.1c0.5-0.3,1.1-0.4,1.6-0.4c0.2,0,0.4,0,0.6,0c0.2,0,0.3,0,0.4,0.1v0.1c-0.3,0.1-0.5,0.2-0.8,0.6
			c-0.2,0.3-0.3,0.8-0.3,1.3c0,0.6,0.2,1.1,0.6,1.5c0.4,0.4,1,0.6,1.7,0.6c0.6,0,1.1-0.2,1.5-0.7c0.4-0.4,0.6-1.1,0.6-1.8
			c0-1-0.4-1.8-1-2.4C131.7,436.6,130.8,436.3,129.6,436.3"/>
		<path class="st3" d="M141.7,431.5h-1.8L139,435c-0.1,0.3-0.2,0.5-0.3,0.8c-0.1,0.2-0.2,0.4-0.4,0.5c-0.2,0.1-0.5,0.3-0.8,0.3
			s-0.8,0.1-1.3,0.1h-0.4v1.9h2.6v14.8c0,1.4,0.3,2.3,0.8,2.9c0.5,0.6,1.5,0.8,2.9,0.8c0.4,0,0.9,0,1.4-0.1c0.5,0,0.9-0.1,1.4-0.2
			c0.4-0.1,0.8-0.2,1.2-0.3c0.3-0.1,0.6-0.2,0.9-0.3v-1.3h-5.2v-16.4h5.2v-1.9h-5.2V431.5z"/>
		<path class="st3" d="M164.7,449c0,0.9-0.1,1.8-0.3,2.6c-0.2,0.8-0.6,1.5-1,2.1c-0.5,0.6-1,1-1.8,1.4c-0.7,0.3-1.6,0.5-2.5,0.5
			c-1,0-1.8-0.2-2.5-0.5c-0.7-0.3-1.3-0.8-1.7-1.4c-0.5-0.6-0.8-1.3-1-2.1c-0.2-0.8-0.3-1.7-0.3-2.6v-4.3c0-0.9,0.1-1.8,0.3-2.6
			c0.2-0.8,0.6-1.5,1-2.1c0.5-0.6,1-1,1.7-1.4c0.7-0.3,1.6-0.5,2.5-0.5c1,0,1.8,0.2,2.5,0.5c0.7,0.3,1.3,0.8,1.8,1.4
			c0.5,0.6,0.8,1.3,1,2.1c0.2,0.8,0.3,1.7,0.3,2.6V449z M165.8,439.2c-0.8-0.9-1.8-1.6-2.9-2.1c-1.2-0.5-2.4-0.7-3.8-0.7
			s-2.7,0.2-3.8,0.7c-1.1,0.5-2.1,1.2-2.9,2.1c-0.8,0.9-1.4,2-1.9,3.4c-0.4,1.3-0.7,2.8-0.7,4.3c0,1.6,0.2,3.1,0.7,4.4
			c0.4,1.3,1.1,2.4,1.9,3.3c0.8,0.9,1.8,1.6,2.9,2.1c1.2,0.5,2.4,0.7,3.8,0.7s2.7-0.2,3.8-0.7c1.1-0.5,2.1-1.2,2.9-2.1
			c0.8-0.9,1.4-2,1.9-3.3c0.4-1.3,0.7-2.7,0.7-4.4c0-1.6-0.2-3-0.7-4.3C167.3,441.2,166.6,440.1,165.8,439.2"/>
		<path class="st3" d="M183.3,436.3c-0.7,0-1.3,0.1-1.9,0.3s-1,0.5-1.4,0.8c-0.4,0.3-0.7,0.7-1,1.1c-0.3,0.4-0.5,0.8-0.7,1.3h-0.2
			v-3.5l-6,1.2v1.3l2.9,0.5v15.9h-2.9v1.8h9.8v-1.8h-3.7v-12.6c0-0.6,0.1-1.1,0.4-1.6c0.3-0.5,0.6-1,1.1-1.5
			c0.4-0.4,0.9-0.8,1.5-1.1c0.5-0.3,1.1-0.4,1.6-0.4c0.2,0,0.4,0,0.6,0c0.2,0,0.3,0,0.4,0.1v0.1c-0.3,0.1-0.5,0.2-0.8,0.6
			c-0.2,0.3-0.3,0.8-0.3,1.3c0,0.6,0.2,1.1,0.6,1.5c0.4,0.4,1,0.6,1.7,0.6c0.6,0,1.1-0.2,1.5-0.7c0.4-0.4,0.6-1.1,0.6-1.8
			c0-1-0.4-1.8-1-2.4C185.4,436.6,184.5,436.3,183.3,436.3"/>
		<path class="st3" d="M195.5,431.5c0.4-0.4,0.5-0.9,0.5-1.5v-0.2c0-0.6-0.2-1.1-0.5-1.5c-0.4-0.4-0.9-0.6-1.6-0.6
			c-0.7,0-1.2,0.2-1.5,0.6c-0.4,0.4-0.5,0.9-0.5,1.5v0.2c0,0.6,0.2,1.1,0.5,1.5c0.4,0.4,0.9,0.6,1.5,0.6
			C194.6,432.1,195.2,431.9,195.5,431.5"/>
	</g>
	<polygon class="st1" points="195.6,436.3 189.5,437.5 189.5,438.8 192.4,439.3 192.4,455.2 189.5,455.2 189.5,457 198.5,457 
		198.5,455.2 195.6,455.2 	"/>
	<g>
		<defs>
			<rect id="SVGID_7_" x="-2559.1" y="-958" width="4993.8" height="3531"/>
		</defs>
		<clipPath id="SVGID_8_">
			<use xlink:href="#SVGID_7_"  style="overflow:visible;"/>
		</clipPath>
		<path class="st4" d="M213.7,451.4c0,1.3-0.4,2.3-1.3,3c-0.9,0.6-2,1-3.2,1c-1.2,0-2.2-0.3-2.9-0.8c-0.7-0.5-1-1.3-1-2.3v-0.8
			c0-0.6,0.1-1.2,0.3-1.6c0.2-0.5,0.5-0.9,1-1.2c0.4-0.3,1-0.6,1.8-0.7c0.8-0.2,1.7-0.3,2.8-0.3h2.5V451.4z M216.9,442.6
			c0-2-0.6-3.5-1.8-4.6c-1.2-1.1-2.8-1.6-5-1.6c-1.2,0-2.2,0.1-3.2,0.4c-0.9,0.2-1.7,0.6-2.3,1c-0.6,0.4-1.1,0.9-1.4,1.4
			c-0.3,0.5-0.5,1.1-0.5,1.7c0,0.8,0.2,1.3,0.6,1.7c0.4,0.4,0.9,0.6,1.5,0.6c0.7,0,1.2-0.2,1.6-0.6c0.4-0.4,0.6-0.9,0.6-1.6
			c0-0.6-0.1-1-0.4-1.3c-0.3-0.3-0.6-0.5-0.8-0.7v-0.1c0.4-0.2,0.8-0.4,1.4-0.5c0.6-0.1,1.2-0.2,1.9-0.2c1.5,0,2.7,0.4,3.5,1.3
			c0.8,0.8,1.2,2.1,1.2,3.7v3h-2.9c-1.6,0-3,0.1-4.2,0.4c-1.2,0.3-2.1,0.6-2.8,1.1c-0.7,0.5-1.2,1.1-1.5,1.9
			c-0.3,0.7-0.5,1.6-0.5,2.6c0,1.7,0.5,3,1.6,4c1.1,1,2.5,1.5,4.4,1.5c0.9,0,1.7-0.1,2.3-0.3c0.7-0.2,1.2-0.5,1.7-0.8
			c0.5-0.3,0.9-0.7,1.2-1.1c0.3-0.4,0.5-0.8,0.7-1.3h0.2v0.3c0,1,0.3,1.7,0.8,2.3c0.6,0.6,1.3,0.9,2.3,0.9c0.6,0,1.1-0.1,1.6-0.2
			c0.5-0.2,0.9-0.3,1.2-0.5v-1.4h-2.9V442.6z"/>
	</g>
	<polygon class="st1" points="251,431.4 254,431.4 254,451.6 253.8,451.6 239.1,429.6 232.5,429.6 232.5,431.4 235.4,431.4 
		235.4,455.2 232.5,455.2 232.5,457 240.5,457 240.5,455.2 237.6,455.2 237.6,433.4 237.7,433.4 253.5,457 256.1,457 256.1,431.4 
		259,431.4 259,429.6 251,429.6 	"/>
	<g>
		<defs>
			<rect id="SVGID_9_" x="-2559.1" y="-958" width="4993.8" height="3531"/>
		</defs>
		<clipPath id="SVGID_10_">
			<use xlink:href="#SVGID_9_"  style="overflow:visible;"/>
		</clipPath>
		<path class="st5" d="M274.5,451.4c0,1.3-0.4,2.3-1.3,3c-0.9,0.6-2,1-3.2,1c-1.2,0-2.2-0.3-2.9-0.8c-0.7-0.5-1-1.3-1-2.3v-0.8
			c0-0.6,0.1-1.2,0.3-1.6c0.2-0.5,0.5-0.9,1-1.2c0.4-0.3,1-0.6,1.8-0.7c0.8-0.2,1.7-0.3,2.8-0.3h2.5V451.4z M277.7,442.6
			c0-2-0.6-3.5-1.8-4.6c-1.2-1.1-2.8-1.6-5-1.6c-1.2,0-2.2,0.1-3.2,0.4c-0.9,0.2-1.7,0.6-2.3,1c-0.6,0.4-1.1,0.9-1.4,1.4
			c-0.3,0.5-0.5,1.1-0.5,1.7c0,0.8,0.2,1.3,0.6,1.7c0.4,0.4,0.9,0.6,1.5,0.6c0.7,0,1.2-0.2,1.6-0.6c0.4-0.4,0.6-0.9,0.6-1.6
			c0-0.6-0.1-1-0.4-1.3c-0.3-0.3-0.6-0.5-0.8-0.7v-0.1c0.4-0.2,0.8-0.4,1.4-0.5c0.6-0.1,1.2-0.2,1.9-0.2c1.5,0,2.7,0.4,3.5,1.3
			c0.8,0.8,1.2,2.1,1.2,3.7v3h-2.9c-1.6,0-3,0.1-4.2,0.4c-1.2,0.3-2.1,0.6-2.8,1.1c-0.7,0.5-1.2,1.1-1.5,1.9
			c-0.3,0.7-0.5,1.6-0.5,2.6c0,1.7,0.5,3,1.6,4c1.1,1,2.5,1.5,4.4,1.5c0.9,0,1.7-0.1,2.3-0.3c0.7-0.2,1.2-0.5,1.7-0.8
			c0.5-0.3,0.9-0.7,1.2-1.1c0.3-0.4,0.5-0.8,0.7-1.3h0.2v0.3c0,1,0.3,1.7,0.8,2.3c0.6,0.6,1.3,0.9,2.3,0.9c0.6,0,1.1-0.1,1.6-0.2
			c0.5-0.2,0.9-0.3,1.2-0.5v-1.4h-2.9V442.6z"/>
		<path class="st5" d="M300.6,448.5c0,2-0.5,3.7-1.5,4.9c-1,1.2-2.4,1.8-4.2,1.8c-0.6,0-1.3-0.1-1.9-0.3c-0.6-0.2-1.2-0.4-1.7-0.8
			c-0.5-0.3-0.9-0.8-1.2-1.3c-0.3-0.5-0.5-1.1-0.5-1.7v-8.6c0-0.6,0.1-1.2,0.5-1.7c0.3-0.5,0.7-0.9,1.2-1.3c0.5-0.3,1-0.6,1.7-0.8
			c0.6-0.2,1.3-0.3,1.9-0.3c1.8,0,3.2,0.6,4.2,1.8c1,1.2,1.5,2.8,1.5,4.9V448.5z M295.8,436.3c-1.6,0-2.9,0.3-3.8,1
			c-1,0.7-1.7,1.5-2.1,2.5h-0.2v-3.5l-6.1,1.2v1.3l2.9,0.5V463h-2.9v1.8h9.8V463h-3.7v-9h0.2c0.4,1,1.2,1.8,2.1,2.5
			c1,0.7,2.3,1,3.8,1c2.5,0,4.5-0.9,6-2.7c1.5-1.8,2.3-4.4,2.3-7.9c0-3.4-0.8-6-2.3-7.9C300.3,437.2,298.3,436.3,295.8,436.3"/>
		<path class="st5" d="M323.1,449c0,0.9-0.1,1.8-0.3,2.6c-0.2,0.8-0.6,1.5-1,2.1c-0.5,0.6-1,1-1.8,1.4c-0.7,0.3-1.6,0.5-2.5,0.5
			c-1,0-1.8-0.2-2.5-0.5c-0.7-0.3-1.3-0.8-1.7-1.4c-0.5-0.6-0.8-1.3-1-2.1c-0.2-0.8-0.3-1.7-0.3-2.6v-4.3c0-0.9,0.1-1.8,0.3-2.6
			c0.2-0.8,0.6-1.5,1-2.1c0.5-0.6,1-1,1.7-1.4c0.7-0.3,1.6-0.5,2.5-0.5c1,0,1.8,0.2,2.5,0.5c0.7,0.3,1.3,0.8,1.8,1.4
			c0.5,0.6,0.8,1.3,1,2.1c0.2,0.8,0.3,1.7,0.3,2.6V449z M324.2,439.2c-0.8-0.9-1.8-1.6-2.9-2.1c-1.2-0.5-2.4-0.7-3.8-0.7
			c-1.4,0-2.7,0.2-3.8,0.7c-1.2,0.5-2.1,1.2-2.9,2.1c-0.8,0.9-1.4,2-1.9,3.4c-0.4,1.3-0.7,2.8-0.7,4.3c0,1.6,0.2,3.1,0.7,4.4
			c0.4,1.3,1.1,2.4,1.9,3.3c0.8,0.9,1.8,1.6,2.9,2.1c1.2,0.5,2.4,0.7,3.8,0.7c1.4,0,2.7-0.2,3.8-0.7c1.1-0.5,2.1-1.2,2.9-2.1
			c0.8-0.9,1.4-2,1.9-3.3c0.4-1.3,0.7-2.7,0.7-4.4c0-1.6-0.2-3-0.7-4.3C325.6,441.2,325,440.1,324.2,439.2"/>
	</g>
	<polygon class="st1" points="336,427.2 329.9,428.3 329.9,429.7 332.8,430.2 332.8,455.2 329.9,455.2 329.9,457 338.9,457 
		338.9,455.2 336,455.2 	"/>
	<g>
		<defs>
			<rect id="SVGID_11_" x="-2559.1" y="-958" width="4993.8" height="3531"/>
		</defs>
		<clipPath id="SVGID_12_">
			<use xlink:href="#SVGID_11_"  style="overflow:visible;"/>
		</clipPath>
		<path class="st6" d="M356.1,445h-10.5v-0.5c0-0.9,0.1-1.8,0.4-2.5c0.2-0.8,0.6-1.4,1-2c0.5-0.6,1-1,1.7-1.3
			c0.7-0.3,1.5-0.5,2.3-0.5c0.9,0,1.7,0.2,2.3,0.5c0.6,0.3,1.2,0.8,1.6,1.3c0.4,0.6,0.7,1.3,0.9,2c0.2,0.8,0.3,1.6,0.3,2.5V445z
			 M357.2,439c-0.7-0.9-1.6-1.5-2.6-2c-1-0.5-2.2-0.7-3.6-0.7c-1.3,0-2.5,0.3-3.6,0.8c-1.1,0.5-2,1.2-2.8,2.2
			c-0.8,0.9-1.4,2.1-1.9,3.4c-0.5,1.3-0.7,2.7-0.7,4.3c0,1.6,0.2,3,0.6,4.4c0.4,1.3,1,2.4,1.8,3.3c0.8,0.9,1.7,1.6,2.9,2.1
			c1.1,0.5,2.4,0.8,3.9,0.8c1.1,0,2-0.2,2.9-0.5c0.9-0.3,1.6-0.7,2.3-1.2c0.7-0.5,1.2-1,1.7-1.7c0.5-0.6,0.8-1.3,1.1-2l-1.3-0.8
			c-0.6,1.1-1.3,1.9-2.3,2.6c-1,0.7-2.2,1-3.9,1c-1.9,0-3.3-0.6-4.4-1.9c-1.1-1.3-1.7-3-1.7-5.2v-1h13.9v-0.9c0-1.4-0.2-2.7-0.6-3.9
			C358.5,440.9,358,439.8,357.2,439"/>
		<path class="st6" d="M368.7,431.5H367l-0.9,3.5c-0.1,0.3-0.2,0.5-0.3,0.8c-0.1,0.2-0.2,0.4-0.4,0.5c-0.2,0.1-0.5,0.3-0.8,0.3
			s-0.8,0.1-1.3,0.1h-0.4v1.9h2.6v14.8c0,1.4,0.3,2.3,0.8,2.9c0.5,0.6,1.5,0.8,2.9,0.8c0.4,0,0.9,0,1.4-0.1c0.5,0,0.9-0.1,1.4-0.2
			c0.4-0.1,0.8-0.2,1.2-0.3c0.3-0.1,0.6-0.2,0.9-0.3v-1.3h-5.2v-16.4h5.2v-1.9h-5.2V431.5z"/>
		<path class="st6" d="M389,451.4c0,1.3-0.4,2.3-1.3,3c-0.9,0.6-2,1-3.2,1c-1.2,0-2.2-0.3-2.9-0.8c-0.7-0.5-1-1.3-1-2.3v-0.8
			c0-0.6,0.1-1.2,0.3-1.6c0.2-0.5,0.5-0.9,1-1.2c0.4-0.3,1-0.6,1.8-0.7c0.8-0.2,1.7-0.3,2.8-0.3h2.5V451.4z M392.2,442.6
			c0-2-0.6-3.5-1.8-4.6c-1.2-1.1-2.8-1.6-5-1.6c-1.2,0-2.2,0.1-3.2,0.4c-0.9,0.2-1.7,0.6-2.3,1c-0.6,0.4-1.1,0.9-1.4,1.4
			c-0.3,0.5-0.5,1.1-0.5,1.7c0,0.8,0.2,1.3,0.6,1.7c0.4,0.4,0.9,0.6,1.5,0.6c0.7,0,1.2-0.2,1.6-0.6c0.4-0.4,0.6-0.9,0.6-1.6
			c0-0.6-0.1-1-0.4-1.3c-0.3-0.3-0.6-0.5-0.8-0.7v-0.1c0.4-0.2,0.8-0.4,1.4-0.5c0.6-0.1,1.2-0.2,1.9-0.2c1.5,0,2.7,0.4,3.5,1.3
			c0.8,0.8,1.2,2.1,1.2,3.7v3h-2.9c-1.6,0-3,0.1-4.2,0.4c-1.2,0.3-2.1,0.6-2.8,1.1c-0.7,0.5-1.2,1.1-1.5,1.9
			c-0.3,0.7-0.5,1.6-0.5,2.6c0,1.7,0.5,3,1.6,4c1.1,1,2.5,1.5,4.4,1.5c0.9,0,1.7-0.1,2.3-0.3c0.7-0.2,1.2-0.5,1.7-0.8
			c0.5-0.3,0.9-0.7,1.2-1.1c0.3-0.4,0.5-0.8,0.7-1.3h0.2v0.3c0,1,0.3,1.7,0.8,2.3c0.6,0.6,1.3,0.9,2.3,0.9c0.6,0,1.1-0.1,1.6-0.2
			c0.5-0.2,0.9-0.3,1.2-0.5v-1.4h-2.9V442.6z"/>
		<path class="st6" d="M417.3,443.9c0-2.5-0.5-4.4-1.6-5.7c-1.1-1.3-2.8-1.9-5.2-1.9c-0.8,0-1.5,0.1-2.2,0.3
			c-0.7,0.2-1.2,0.5-1.7,0.8c-0.5,0.3-0.9,0.7-1.2,1.1c-0.3,0.4-0.6,0.8-0.7,1.2h-0.2v-3.5l-6,1.2v1.3l2.9,0.5v15.9h-2.9v1.8h9v-1.8
			h-2.9v-12.7c0-0.7,0.1-1.3,0.4-1.8c0.3-0.5,0.6-0.9,1.1-1.3c0.5-0.3,1-0.6,1.5-0.7c0.6-0.2,1.1-0.2,1.7-0.2c3.2,0,4.7,1.9,4.7,5.6
			v11h-2.9v1.8h9v-1.8h-2.9V443.9z"/>
		<path class="st6" d="M435.4,451.4c0,1.3-0.4,2.3-1.3,3c-0.9,0.6-2,1-3.2,1c-1.2,0-2.2-0.3-2.9-0.8c-0.7-0.5-1-1.3-1-2.3v-0.8
			c0-0.6,0.1-1.2,0.3-1.6c0.2-0.5,0.5-0.9,1-1.2c0.4-0.3,1-0.6,1.8-0.7c0.8-0.2,1.7-0.3,2.8-0.3h2.5V451.4z M438.6,442.6
			c0-2-0.6-3.5-1.8-4.6c-1.2-1.1-2.8-1.6-5-1.6c-1.2,0-2.2,0.1-3.2,0.4c-0.9,0.2-1.7,0.6-2.3,1c-0.6,0.4-1.1,0.9-1.4,1.4
			c-0.3,0.5-0.5,1.1-0.5,1.7c0,0.8,0.2,1.3,0.6,1.7c0.4,0.4,0.9,0.6,1.5,0.6c0.7,0,1.2-0.2,1.6-0.6c0.4-0.4,0.6-0.9,0.6-1.6
			c0-0.6-0.1-1-0.4-1.3c-0.3-0.3-0.6-0.5-0.8-0.7v-0.1c0.4-0.2,0.8-0.4,1.4-0.5c0.6-0.1,1.2-0.2,1.9-0.2c1.5,0,2.7,0.4,3.5,1.3
			c0.8,0.8,1.2,2.1,1.2,3.7v3h-2.9c-1.6,0-3,0.1-4.2,0.4c-1.2,0.3-2.1,0.6-2.8,1.1c-0.7,0.5-1.2,1.1-1.5,1.9
			c-0.3,0.7-0.5,1.6-0.5,2.6c0,1.7,0.5,3,1.6,4c1.1,1,2.5,1.5,4.4,1.5c0.9,0,1.7-0.1,2.3-0.3c0.7-0.2,1.2-0.5,1.7-0.8
			c0.5-0.3,0.9-0.7,1.2-1.1c0.3-0.4,0.5-0.8,0.7-1.3h0.2v0.3c0,1,0.3,1.7,0.8,2.3c0.6,0.6,1.3,0.9,2.3,0.9c0.6,0,1.1-0.1,1.6-0.2
			c0.5-0.2,0.9-0.3,1.2-0.5v-1.4h-2.9V442.6z"/>
	</g>
	<polygon class="st1" points="362.2,383.9 362.2,389 386.4,389 386.4,383.9 380.3,383.9 380.3,334.4 386.4,334.4 386.4,329.3 
		366.8,329.3 352.5,360.4 352.1,360.4 337.8,329.3 318.1,329.3 318.1,334.4 324.2,334.4 324.2,383.9 318.1,383.9 318.1,389 
		336.4,389 336.4,383.9 330.3,383.9 330.3,339.3 330.7,339.3 335.4,350.5 346.8,374.4 351.8,374.4 363.3,350.5 367.9,339.3 
		368.3,339.3 368.3,383.9 	"/>
</g>
</svg>
